<?xml version="1.0" encoding="utf-8"?>
<!-- Generator: Adobe Illustrator 16.0.0, SVG Export Plug-In . SVG Version: 6.00 Build 0)  -->
<!DOCTYPE svg PUBLIC "-//W3C//DTD SVG 1.1//EN" "http://www.w3.org/Graphics/SVG/1.1/DTD/svg11.dtd">
<svg version="1.1" id="레이어_1" xmlns="http://www.w3.org/2000/svg" xmlns:xlink="http://www.w3.org/1999/xlink" x="0px"
	 y="0px" width="281.028px" height="83.021px" viewBox="0 0 281.028 83.021" enable-background="new 0 0 281.028 83.021"
	 xml:space="preserve">
<g>
	<g>
		<g>
			<g>
				<path fill="#FF6700" d="M25.659,1.697c1.638,0,3.085,0.248,4.343,0.745s2.31,1.142,3.159,1.931
					c0.848,0.789,1.483,1.682,1.907,2.676c0.425,0.994,0.637,1.988,0.637,2.982v1.756c0,1.023-0.212,2.032-0.637,3.025
					c-0.424,0.995-1.06,1.887-1.907,2.677c-0.85,0.79-1.901,1.426-3.159,1.909c-1.258,0.482-2.705,0.723-4.343,0.723
					s-3.086-0.24-4.343-0.723c-1.258-0.483-2.311-1.119-3.159-1.909c-0.848-0.79-1.484-1.682-1.908-2.677
					c-0.424-0.993-0.636-2.002-0.636-3.025v-1.756c0-0.994,0.212-1.988,0.636-2.982s1.061-1.887,1.908-2.676
					c0.849-0.789,1.901-1.434,3.159-1.931C22.573,1.945,24.021,1.697,25.659,1.697z M25.659,16.393c0.936,0,1.769-0.139,2.5-0.417
					c0.731-0.276,1.346-0.643,1.843-1.097c0.497-0.453,0.878-0.972,1.141-1.557c0.264-0.586,0.395-1.186,0.395-1.799v-1.229
					c0-0.613-0.131-1.213-0.395-1.799C30.88,7.912,30.499,7.4,30.002,6.961c-0.497-0.438-1.111-0.797-1.843-1.074
					c-0.731-0.278-1.564-0.418-2.5-0.418c-0.937,0-1.77,0.133-2.501,0.395c-0.73,0.264-1.345,0.623-1.842,1.076
					c-0.498,0.453-0.878,0.973-1.141,1.557c-0.263,0.586-0.396,1.186-0.396,1.799v1.229c0,0.613,0.133,1.213,0.396,1.799
					c0.263,0.585,0.643,1.104,1.141,1.557c0.497,0.454,1.111,0.82,1.842,1.097C23.89,16.254,24.723,16.393,25.659,16.393z
					 M22.632,41.836V30.781h20.794v-3.904H22.413v-3.598h25.268v11.012H26.888v3.947h21.934v3.598H22.632z M43.382,21.262V1.127
					h4.299v20.135H43.382z"/>
			</g>
		</g>
		<g>
			<g>
				<path fill="#FF6700" d="M65.843,15.076c-0.117,0.381-0.469,0.907-1.053,1.58c-0.585,0.672-1.215,1.315-1.887,1.93
					c-0.907,0.85-1.96,1.776-3.159,2.785c-1.199,1.01-2.384,1.982-3.553,2.918l-2.589-3.071c1.404-1.081,2.742-2.163,4.015-3.246
					c1.271-1.081,2.287-2.003,3.049-2.764c0.555-0.555,1.016-1.089,1.381-1.601c0.366-0.512,0.658-1.038,0.878-1.58
					c0.219-0.541,0.373-1.118,0.46-1.732c0.088-0.613,0.133-1.301,0.133-2.063V2.926h4.388v5.131c0,0.674,0.021,1.281,0.065,1.821
					c0.043,0.542,0.139,1.046,0.285,1.514c0.146,0.469,0.372,0.929,0.68,1.382c0.308,0.454,0.724,0.914,1.251,1.383
					c1.022,0.936,2.142,1.9,3.355,2.895c1.213,0.994,2.479,1.959,3.794,2.896l-2.544,3.026c-1.141-0.848-2.23-1.703-3.269-2.566
					c-1.038-0.862-2.084-1.732-3.136-2.609c-0.674-0.555-1.222-1.068-1.646-1.535c-0.425-0.469-0.71-0.863-0.855-1.186H65.843z
					 M61.675,33.238c0-1.054,0.277-2.047,0.834-2.983c0.555-0.936,1.359-1.755,2.413-2.457c1.053-0.702,2.332-1.257,3.838-1.667
					c1.506-0.408,3.209-0.613,5.111-0.613c1.9,0,3.604,0.205,5.11,0.613c1.506,0.41,2.786,0.965,3.838,1.667
					c1.054,0.702,1.857,1.521,2.413,2.457c0.556,0.937,0.834,1.93,0.834,2.983v1.755c0,1.052-0.278,2.046-0.834,2.983
					c-0.556,0.935-1.359,1.754-2.413,2.455c-1.052,0.702-2.332,1.258-3.838,1.668c-1.507,0.408-3.21,0.613-5.11,0.613
					c-1.902,0-3.605-0.205-5.111-0.613c-1.506-0.41-2.785-0.966-3.838-1.668c-1.054-0.701-1.858-1.521-2.413-2.455
					c-0.557-0.938-0.834-1.932-0.834-2.983V33.238z M81.811,33.502c0-0.527-0.183-1.061-0.548-1.602
					c-0.366-0.541-0.893-1.017-1.58-1.426c-0.688-0.41-1.521-0.746-2.5-1.01c-0.98-0.263-2.084-0.395-3.312-0.395
					c-1.229,0-2.333,0.132-3.313,0.395c-0.98,0.264-1.813,0.6-2.5,1.01c-0.688,0.409-1.214,0.885-1.58,1.426
					s-0.548,1.074-0.548,1.602v1.228c0,0.526,0.182,1.06,0.548,1.602c0.366,0.54,0.893,1.015,1.58,1.425
					c0.687,0.409,1.52,0.746,2.5,1.01c0.979,0.263,2.084,0.395,3.313,0.395c1.228,0,2.331-0.132,3.312-0.395
					c0.979-0.264,1.813-0.601,2.5-1.01c0.688-0.41,1.214-0.885,1.58-1.425c0.365-0.542,0.548-1.075,0.548-1.602V33.502z
					 M91.638,14.682h-5.747V24.99h-4.299V1.127h4.299v9.782h5.747V14.682z"/>
			</g>
		</g>
		<g>
			<g>
				<path fill="#FF6700" d="M131.117,18.762v3.598H94.005v-3.598H131.117z M99.313,41.836V31.703h22.198V28.72H99.094v-3.554h26.672
					v10.002h-22.197v3.115h23.382v3.553H99.313z M112.562,1.346c2.018,0,3.823,0.168,5.417,0.505s2.946,0.812,4.059,1.425
					c1.11,0.615,1.966,1.354,2.565,2.216c0.6,0.863,0.899,1.807,0.899,2.829v1.054c0,1.024-0.3,1.967-0.899,2.829
					c-0.6,0.863-1.455,1.602-2.565,2.215c-1.112,0.614-2.465,1.091-4.059,1.426c-1.594,0.337-3.399,0.506-5.417,0.506
					c-2.019,0-3.824-0.169-5.418-0.506c-1.595-0.335-2.947-0.812-4.058-1.426c-1.112-0.613-1.968-1.352-2.566-2.215
					c-0.6-0.862-0.899-1.805-0.899-2.829V8.32c0-1.022,0.3-1.966,0.899-2.829c0.599-0.862,1.454-1.601,2.566-2.216
					c1.11-0.613,2.463-1.088,4.058-1.425C108.737,1.514,110.543,1.346,112.562,1.346z M112.562,12.752
					c2.777,0,4.92-0.344,6.427-1.031c1.506-0.687,2.259-1.498,2.259-2.435V8.408c0-0.936-0.753-1.746-2.259-2.435
					c-1.507-0.687-3.649-1.03-6.427-1.03c-2.779,0-4.921,0.344-6.427,1.03c-1.507,0.688-2.26,1.499-2.26,2.435v0.878
					c0,0.937,0.753,1.748,2.26,2.435C107.641,12.408,109.782,12.752,112.562,12.752z"/>
			</g>
		</g>
		<g>
			<g>
				<path fill="#FFA92C" d="M182.004,18.235v3.597h-37.112v-3.597H182.004z M163.404,10.777c-0.117,0.234-0.365,0.482-0.746,0.746
					s-0.832,0.541-1.359,0.834c-0.527,0.291-1.068,0.563-1.623,0.811c-0.557,0.25-1.068,0.461-1.535,0.637
					c-1.492,0.585-2.932,1.104-4.32,1.557c-1.391,0.454-2.83,0.915-4.322,1.383l-1.492-3.554c1.756-0.497,3.299-0.966,4.629-1.403
					c1.33-0.439,2.582-0.893,3.75-1.361c1.434-0.584,2.604-1.234,3.51-1.951s1.361-1.543,1.361-2.479V5.863h-11.539V2.267h27.463
					v3.597h-11.582v0.133c0,0.936,0.439,1.74,1.316,2.412c0.877,0.674,2.063,1.331,3.553,1.975c1.141,0.498,2.391,0.965,3.752,1.404
					c1.359,0.438,2.9,0.906,4.627,1.403l-1.447,3.554c-1.551-0.497-3.012-0.973-4.387-1.426s-2.764-0.958-4.168-1.514
					c-0.467-0.176-0.994-0.395-1.578-0.658c-0.586-0.264-1.141-0.533-1.668-0.812s-0.986-0.548-1.381-0.812
					c-0.396-0.264-0.652-0.512-0.768-0.746H163.404z M150.199,41.836V31.703h22.199v-3.071H149.98v-3.554h26.672v10.09h-22.197
					v3.115h23.383v3.553H150.199z"/>
			</g>
		</g>
		<g>
			<g>
				<path fill="#FFA92C" d="M186.523,29.289c2.34-1.373,4.32-2.594,5.943-3.662s2.977-2.047,4.059-2.939
					c1.08-0.892,1.93-1.726,2.543-2.5c0.615-0.775,1.076-1.551,1.383-2.326c0.307-0.773,0.496-1.585,0.57-2.434
					c0.072-0.848,0.109-1.799,0.109-2.852V8.584h-13.818V4.855h18.117v7.764c0,1.316-0.037,2.509-0.109,3.576
					s-0.285,2.076-0.637,3.027c-0.35,0.949-0.869,1.886-1.557,2.807c-0.688,0.922-1.652,1.908-2.895,2.961
					c-1.244,1.054-2.795,2.209-4.65,3.466c-1.857,1.259-4.117,2.691-6.777,4.3L186.523,29.289z M213.984,41.573V1.127h4.342v40.446
					H213.984z"/>
			</g>
		</g>
		<g>
			<g>
				<path fill="#FFA92C" d="M245.35,8.54h-14.258v18.601h2.324c2.867,0,5.551-0.096,8.051-0.285s4.994-0.476,7.479-0.855
					l0.572,3.641c-2.604,0.469-5.273,0.797-8.008,0.986c-2.734,0.191-5.738,0.286-9.014,0.286h-5.748V4.768h18.602V8.54z
					 M262.633,19.507h-6.229v22.066h-4.344V1.127h4.344v14.607h6.229V19.507z"/>
			</g>
		</g>
	</g>
	<g>
		<path fill="#404040" d="M5.292,55.738c0.529,0,0.987,0.042,1.372,0.126c0.386,0.085,0.729,0.253,1.03,0.506
			c0.301,0.253,0.59,0.62,0.867,1.103c0.276,0.481,0.583,1.132,0.921,1.95l4.949,12.355l4.732-12.319
			c0.289-0.795,0.572-1.433,0.85-1.914c0.276-0.482,0.578-0.855,0.903-1.121c0.325-0.264,0.687-0.445,1.083-0.541
			c0.397-0.096,0.861-0.145,1.392-0.145h0.759c1.155,0,1.956,0.217,2.402,0.65c0.445,0.434,0.668,1.217,0.668,2.348v21.099
			c0,0.649-0.217,1.126-0.65,1.427s-0.951,0.451-1.554,0.451c-0.554,0-1.054-0.15-1.499-0.451s-0.668-0.777-0.668-1.427V59.784
			c-0.217,0.915-0.422,1.668-0.614,2.258c-0.193,0.591-0.386,1.138-0.578,1.644l-4.769,11.742c-0.313,0.771-0.645,1.282-0.994,1.535
			c-0.349,0.252-0.837,0.379-1.463,0.379c-0.747,0-1.307-0.139-1.68-0.415c-0.374-0.276-0.717-0.813-1.029-1.608L7.062,63.686
			c-0.192-0.48-0.385-1.023-0.578-1.625c-0.192-0.602-0.421-1.361-0.686-2.276v20.051c0,0.649-0.224,1.126-0.669,1.427
			s-0.957,0.451-1.535,0.451c-0.555,0-1.048-0.15-1.481-0.451s-0.65-0.777-0.65-1.427V58.736c0-1.131,0.223-1.914,0.669-2.348
			c0.445-0.434,1.246-0.65,2.402-0.65H5.292z"/>
		<path fill="#404040" d="M48.464,55.811c0.554,0,0.957,0.187,1.21,0.56c0.253,0.374,0.38,0.825,0.38,1.354
			c0,0.506-0.127,0.952-0.38,1.337c-0.253,0.386-0.656,0.578-1.21,0.578H37.662v6.828h10.079c0.529,0,0.921,0.187,1.174,0.56
			c0.253,0.374,0.38,0.813,0.38,1.318s-0.127,0.946-0.38,1.319c-0.253,0.374-0.645,0.56-1.174,0.56H37.662v7.442h11.055
			c0.554,0,0.957,0.193,1.21,0.578c0.253,0.386,0.379,0.831,0.379,1.337c0,0.529-0.126,0.981-0.379,1.354
			c-0.253,0.374-0.656,0.56-1.21,0.56H36.145c-1.156,0-1.957-0.217-2.402-0.65c-0.446-0.434-0.669-1.215-0.669-2.348V58.809
			c0-1.132,0.223-1.914,0.669-2.348c0.445-0.434,1.246-0.65,2.402-0.65H48.464z"/>
		<path fill="#404040" d="M64.07,55.811c1.879,0,3.522,0.223,4.932,0.668c1.408,0.445,2.595,1.156,3.558,2.131
			c0.964,0.977,1.686,2.234,2.168,3.775c0.481,1.542,0.723,3.409,0.723,5.6v1.338c0,2.191-0.241,4.059-0.723,5.6
			c-0.482,1.541-1.204,2.799-2.168,3.775c-0.963,0.975-2.149,1.686-3.558,2.131c-1.409,0.446-3.053,0.668-4.932,0.668h-5.961
			c-1.156,0-1.957-0.217-2.402-0.65c-0.446-0.434-0.669-1.215-0.669-2.348V58.809c0-1.132,0.223-1.914,0.669-2.348
			c0.445-0.434,1.246-0.65,2.402-0.65H64.07z M59.627,77.595h3.829c1.324,0,2.45-0.145,3.378-0.434
			c0.927-0.288,1.686-0.771,2.275-1.444c0.591-0.674,1.018-1.56,1.283-2.656c0.265-1.096,0.397-2.462,0.397-4.1v-0.615
			c0-1.613-0.133-2.974-0.397-4.082c-0.266-1.107-0.692-1.998-1.283-2.673c-0.59-0.675-1.349-1.156-2.275-1.445
			c-0.928-0.289-2.054-0.434-3.378-0.434h-3.829V77.595z"/>
		<path fill="#404040" d="M82.639,55.594c0.626,0,1.168,0.156,1.626,0.469c0.457,0.314,0.687,0.82,0.687,1.518v22.146
			c0,0.699-0.229,1.205-0.687,1.518c-0.458,0.313-1,0.469-1.626,0.469s-1.168-0.156-1.625-0.469
			c-0.458-0.313-0.687-0.818-0.687-1.518V57.58c0-0.697,0.229-1.203,0.687-1.518C81.471,55.75,82.013,55.594,82.639,55.594z"/>
		<path fill="#404040" d="M100.305,55.594c0.626,0,1.168,0.145,1.626,0.434c0.457,0.289,0.854,0.855,1.192,1.697l8.128,20.954
			c0.266,0.698,0.266,1.301,0,1.806c-0.265,0.506-0.698,0.855-1.3,1.049c-0.603,0.191-1.198,0.217-1.789,0.072
			c-0.59-0.145-1.018-0.602-1.282-1.373l-2.095-5.781h-9.104l-2.132,5.926c-0.265,0.699-0.668,1.113-1.21,1.246
			s-1.102,0.102-1.68-0.09c-0.578-0.193-1-0.518-1.265-0.977c-0.266-0.457-0.266-1.023,0-1.697l8.129-21.135
			c0.313-0.842,0.704-1.408,1.174-1.697S99.702,55.594,100.305,55.594z M100.232,61.374c-0.192,0.722-0.379,1.367-0.56,1.933
			c-0.181,0.566-0.416,1.259-0.705,2.077l-1.914,5.239h6.358l-1.879-5.239c-0.313-0.843-0.56-1.565-0.74-2.167
			S100.425,62,100.232,61.374z"/>
		<path fill="#404040" d="M128.592,55.738c0.529,0,0.987,0.042,1.373,0.126c0.385,0.085,0.729,0.253,1.029,0.506
			s0.59,0.62,0.867,1.103c0.276,0.481,0.584,1.132,0.921,1.95l4.95,12.355l4.732-12.319c0.289-0.795,0.571-1.433,0.849-1.914
			c0.277-0.482,0.578-0.855,0.903-1.121c0.325-0.264,0.687-0.445,1.083-0.541c0.398-0.096,0.861-0.145,1.392-0.145h0.76
			c1.156,0,1.957,0.217,2.402,0.65s0.668,1.217,0.668,2.348v21.099c0,0.649-0.217,1.126-0.65,1.427s-0.951,0.451-1.553,0.451
			c-0.555,0-1.055-0.15-1.5-0.451s-0.669-0.777-0.669-1.427V59.784c-0.217,0.915-0.422,1.668-0.614,2.258
			c-0.192,0.591-0.386,1.138-0.577,1.644l-4.77,11.742c-0.313,0.771-0.645,1.282-0.993,1.535c-0.35,0.252-0.837,0.379-1.463,0.379
			c-0.747,0-1.307-0.139-1.681-0.415c-0.373-0.276-0.717-0.813-1.029-1.608l-4.66-11.633c-0.193-0.48-0.386-1.023-0.578-1.625
			c-0.193-0.602-0.422-1.361-0.687-2.276v20.051c0,0.649-0.223,1.126-0.668,1.427c-0.446,0.301-0.958,0.451-1.536,0.451
			c-0.554,0-1.047-0.15-1.48-0.451s-0.65-0.777-0.65-1.427V58.736c0-1.131,0.223-1.914,0.668-2.348s1.246-0.65,2.402-0.65H128.592z"
			/>
		<path fill="#404040" d="M166.453,55.413c1.758,0,3.324,0.241,4.697,0.722c1.373,0.482,2.529,1.229,3.469,2.24
			s1.654,2.307,2.148,3.884s0.74,3.463,0.74,5.653v1.482c0,2.191-0.246,4.076-0.74,5.653s-1.209,2.872-2.148,3.884
			s-2.096,1.758-3.469,2.24c-1.373,0.48-2.939,0.723-4.697,0.723s-3.322-0.242-4.695-0.723c-1.373-0.482-2.529-1.229-3.469-2.24
			s-1.656-2.307-2.15-3.884c-0.492-1.577-0.74-3.462-0.74-5.653v-1.482c0-2.19,0.248-4.076,0.74-5.653
			c0.494-1.577,1.211-2.872,2.15-3.884s2.096-1.758,3.469-2.24C163.131,55.654,164.695,55.413,166.453,55.413z M166.453,59.64
			c-1.059,0-1.986,0.145-2.781,0.434s-1.463,0.765-2.006,1.427c-0.541,0.663-0.945,1.548-1.209,2.656
			c-0.266,1.107-0.398,2.48-0.398,4.117v0.76c0,1.638,0.133,3.011,0.398,4.118c0.264,1.108,0.668,1.993,1.209,2.655
			c0.543,0.662,1.211,1.139,2.006,1.427c0.795,0.289,1.723,0.434,2.781,0.434c1.061,0,1.988-0.145,2.783-0.434
			c0.795-0.288,1.463-0.765,2.004-1.427c0.543-0.662,0.945-1.547,1.211-2.655c0.264-1.107,0.396-2.48,0.396-4.118v-0.76
			c0-1.637-0.133-3.01-0.396-4.117c-0.266-1.108-0.668-1.993-1.211-2.656c-0.541-0.662-1.209-1.138-2.004-1.427
			S167.514,59.64,166.453,59.64z"/>
		<path fill="#404040" d="M186.215,55.738c0.529,0,0.986,0.042,1.373,0.126c0.385,0.085,0.729,0.253,1.029,0.506
			s0.59,0.62,0.867,1.103c0.275,0.481,0.584,1.132,0.92,1.95l4.951,12.355l4.732-12.319c0.289-0.795,0.57-1.433,0.848-1.914
			c0.277-0.482,0.578-0.855,0.904-1.121c0.324-0.264,0.686-0.445,1.084-0.541c0.396-0.096,0.859-0.145,1.391-0.145h0.758
			c1.156,0,1.957,0.217,2.402,0.65s0.67,1.217,0.67,2.348v21.099c0,0.649-0.217,1.126-0.65,1.427s-0.953,0.451-1.555,0.451
			c-0.555,0-1.053-0.15-1.498-0.451c-0.447-0.301-0.67-0.777-0.67-1.427V59.784c-0.217,0.915-0.42,1.668-0.613,2.258
			c-0.193,0.591-0.385,1.138-0.578,1.644l-4.77,11.742c-0.313,0.771-0.645,1.282-0.992,1.535c-0.35,0.252-0.838,0.379-1.463,0.379
			c-0.748,0-1.307-0.139-1.682-0.415c-0.373-0.276-0.717-0.813-1.029-1.608l-4.66-11.633c-0.193-0.48-0.385-1.023-0.578-1.625
			s-0.422-1.361-0.686-2.276v20.051c0,0.649-0.223,1.126-0.668,1.427c-0.447,0.301-0.959,0.451-1.537,0.451
			c-0.553,0-1.047-0.15-1.48-0.451s-0.65-0.777-0.65-1.427V58.736c0-1.131,0.223-1.914,0.668-2.348s1.246-0.65,2.402-0.65H186.215z"
			/>
		<path fill="#404040" d="M229.387,55.811c0.553,0,0.957,0.187,1.211,0.56c0.252,0.374,0.379,0.825,0.379,1.354
			c0,0.506-0.127,0.952-0.379,1.337c-0.254,0.386-0.658,0.578-1.211,0.578h-10.803v6.828h10.08c0.529,0,0.922,0.187,1.174,0.56
			c0.254,0.374,0.379,0.813,0.379,1.318s-0.125,0.946-0.379,1.319c-0.252,0.374-0.645,0.56-1.174,0.56h-10.08v7.442h11.055
			c0.555,0,0.959,0.193,1.211,0.578c0.254,0.386,0.379,0.831,0.379,1.337c0,0.529-0.125,0.981-0.379,1.354
			c-0.252,0.374-0.656,0.56-1.211,0.56h-12.572c-1.156,0-1.957-0.217-2.402-0.65s-0.668-1.215-0.668-2.348V58.809
			c0-1.132,0.223-1.914,0.668-2.348s1.246-0.65,2.402-0.65H229.387z"/>
		<path fill="#404040" d="M254.025,55.594c0.553,0,1.047,0.15,1.48,0.451c0.434,0.302,0.65,0.777,0.65,1.428V78.57
			c0,1.133-0.223,1.914-0.668,2.348c-0.447,0.434-1.246,0.65-2.402,0.65c-0.434,0-0.82-0.035-1.156-0.107
			c-0.338-0.072-0.662-0.235-0.977-0.488c-0.313-0.253-0.637-0.619-0.975-1.102s-0.734-1.132-1.191-1.951l-6.828-12.211
			c-0.361-0.65-0.688-1.301-0.977-1.951s-0.541-1.385-0.758-2.203v18.28c0,0.649-0.217,1.126-0.65,1.427s-0.928,0.451-1.482,0.451
			c-0.553,0-1.047-0.15-1.48-0.451s-0.65-0.777-0.65-1.427V58.736c0-1.131,0.223-1.914,0.668-2.348s1.246-0.65,2.402-0.65
			c0.434,0,0.818,0.035,1.156,0.107s0.662,0.235,0.977,0.488c0.313,0.253,0.637,0.621,0.975,1.102
			c0.338,0.482,0.734,1.133,1.193,1.951l6.826,12.211c0.361,0.65,0.688,1.301,0.977,1.951s0.541,1.385,0.758,2.203V57.473
			c0-0.65,0.217-1.126,0.65-1.428C252.977,55.744,253.471,55.594,254.025,55.594z"/>
		<path fill="#404040" d="M277.941,55.811c0.553,0,0.963,0.193,1.227,0.578c0.266,0.385,0.398,0.843,0.398,1.373
			c0,0.529-0.133,0.987-0.398,1.372c-0.264,0.386-0.674,0.578-1.227,0.578h-6.215v20.015c0,0.699-0.229,1.205-0.686,1.518
			c-0.459,0.313-1,0.469-1.627,0.469s-1.168-0.156-1.625-0.469s-0.688-0.818-0.688-1.518V59.712h-6.25
			c-0.553,0-0.963-0.192-1.227-0.578c-0.266-0.385-0.398-0.843-0.398-1.372c0-0.53,0.133-0.988,0.398-1.373
			c0.264-0.385,0.674-0.578,1.227-0.578H277.941z"/>
	</g>
</g>
</svg>
