<?xml version="1.0" encoding="utf-8"?>
<!-- Generator: Adobe Illustrator 16.0.0, SVG Export Plug-In . SVG Version: 6.00 Build 0)  -->
<!DOCTYPE svg PUBLIC "-//W3C//DTD SVG 1.1//EN" "http://www.w3.org/Graphics/SVG/1.1/DTD/svg11.dtd">
<svg version="1.1" id="레이어_1" xmlns="http://www.w3.org/2000/svg" xmlns:xlink="http://www.w3.org/1999/xlink" x="0px"
	 y="0px" width="232.75px" height="178.25px" viewBox="0 0 232.75 178.25" enable-background="new 0 0 232.75 178.25"
	 xml:space="preserve">
<g>
	<linearGradient id="SVGID_1_" gradientUnits="userSpaceOnUse" x1="102.6758" y1="46.9316" x2="113.8609" y2="118.1095">
		<stop  offset="0" style="stop-color:#FFC953"/>
		<stop  offset="1" style="stop-color:#FFC754"/>
	</linearGradient>
	<path fill="url(#SVGID_1_)" d="M121.664,39.185l-36.258,62.801c3.978-6.128,12.104-8.131,18.504-4.438
		c6.289,3.632,8.642,11.457,5.574,17.902l23.061-39.943l-7.719-52.574c-0.022-0.159-0.054-0.314-0.078-0.472
		C125.641,28.028,124.701,33.923,121.664,39.185z"/>
	<linearGradient id="SVGID_2_" gradientUnits="userSpaceOnUse" x1="199.7119" y1="23.3657" x2="107.6881" y2="156.063">
		<stop  offset="0" style="stop-color:#D4DE00"/>
		<stop  offset="1" style="stop-color:#FF9A00"/>
	</linearGradient>
	<path fill="url(#SVGID_2_)" d="M215.471,22.853c-0.04-0.265-0.085-0.528-0.131-0.791c-0.033-0.178-0.067-0.354-0.104-0.531
		c-0.043-0.21-0.09-0.42-0.137-0.628c-0.053-0.223-0.105-0.445-0.162-0.667c-0.039-0.152-0.082-0.302-0.123-0.453
		c-0.075-0.267-0.151-0.535-0.234-0.798c-0.032-0.1-0.064-0.198-0.098-0.296c-0.101-0.305-0.203-0.609-0.314-0.91
		c-0.022-0.059-0.045-0.117-0.068-0.176c-0.125-0.33-0.255-0.658-0.393-0.983c-0.016-0.037-0.033-0.073-0.05-0.109
		c-0.146-0.339-0.299-0.674-0.46-1.006c-0.018-0.037-0.037-0.073-0.055-0.109c-0.16-0.325-0.325-0.647-0.499-0.966
		c-0.034-0.062-0.069-0.121-0.104-0.182c-0.16-0.288-0.325-0.574-0.497-0.857c-0.063-0.104-0.131-0.207-0.196-0.311
		c-0.146-0.232-0.294-0.465-0.448-0.693c-0.104-0.155-0.215-0.307-0.323-0.46c-0.121-0.172-0.242-0.343-0.368-0.512
		c-0.146-0.198-0.3-0.39-0.453-0.583c-0.096-0.12-0.189-0.242-0.287-0.361c-0.182-0.219-0.368-0.434-0.557-0.647
		c-0.078-0.089-0.156-0.18-0.235-0.268c-0.2-0.221-0.406-0.435-0.612-0.648c-0.08-0.081-0.156-0.162-0.236-0.242
		c-0.203-0.204-0.412-0.401-0.622-0.597c-0.095-0.089-0.188-0.178-0.284-0.266c-0.192-0.175-0.391-0.344-0.588-0.513
		c-0.126-0.107-0.252-0.215-0.381-0.321c-0.17-0.14-0.345-0.275-0.519-0.411c-0.17-0.131-0.341-0.263-0.515-0.39
		c-0.141-0.104-0.283-0.205-0.425-0.305c-0.222-0.156-0.444-0.31-0.671-0.459c-0.106-0.07-0.214-0.139-0.321-0.208
		c-0.272-0.173-0.548-0.343-0.828-0.506c-0.076-0.044-0.151-0.089-0.229-0.133c-0.312-0.178-0.625-0.348-0.94-0.511
		c-0.059-0.031-0.117-0.062-0.176-0.091c-0.329-0.168-0.662-0.327-0.996-0.479c-0.053-0.023-0.103-0.048-0.154-0.071
		c-0.341-0.152-0.684-0.295-1.027-0.431c-0.049-0.019-0.097-0.04-0.146-0.059c-0.347-0.135-0.696-0.26-1.047-0.378
		c-0.047-0.017-0.096-0.034-0.143-0.05c-0.354-0.117-0.708-0.224-1.064-0.326c-0.046-0.013-0.092-0.028-0.137-0.04
		c-0.359-0.101-0.719-0.189-1.079-0.272c-0.046-0.011-0.089-0.023-0.135-0.033c-0.358-0.081-0.719-0.151-1.079-0.216
		c-0.048-0.009-0.097-0.019-0.146-0.028c-0.353-0.061-0.705-0.112-1.059-0.158c-0.059-0.007-0.117-0.017-0.177-0.024
		c-0.338-0.042-0.677-0.073-1.017-0.101c-0.077-0.006-0.151-0.015-0.229-0.02c-0.319-0.023-0.64-0.038-0.959-0.049
		c-0.099-0.003-0.196-0.009-0.296-0.011c-0.299-0.007-0.598-0.005-0.896-0.001c-0.121,0.001-0.242,0.001-0.365,0.005
		c-0.281,0.007-0.563,0.022-0.845,0.039c-0.137,0.008-0.274,0.016-0.413,0.027c-0.273,0.021-0.548,0.048-0.822,0.078
		c-0.14,0.016-0.279,0.031-0.421,0.049c-0.284,0.036-0.567,0.076-0.851,0.122c-0.115,0.018-0.231,0.038-0.347,0.058
		c-0.315,0.055-0.628,0.114-0.939,0.181c-0.069,0.015-0.138,0.03-0.205,0.044c-0.355,0.08-0.709,0.164-1.06,0.257
		c-0.015,0.004-0.028,0.008-0.043,0.012c-2.73,0.735-5.339,1.922-7.703,3.529c-0.043,0.029-0.086,0.06-0.128,0.089
		c-0.282,0.195-0.563,0.394-0.837,0.601c-0.103,0.077-0.202,0.158-0.305,0.236c-0.212,0.166-0.425,0.332-0.633,0.504
		c-0.143,0.118-0.282,0.24-0.422,0.362c-0.163,0.141-0.327,0.282-0.488,0.428c-0.16,0.146-0.316,0.298-0.475,0.449
		c-0.136,0.132-0.273,0.262-0.408,0.397c-0.158,0.159-0.313,0.323-0.467,0.487c-0.131,0.138-0.262,0.276-0.39,0.417
		c-0.142,0.157-0.279,0.318-0.416,0.478c-0.14,0.162-0.277,0.323-0.412,0.489c-0.116,0.142-0.229,0.287-0.342,0.431
		c-0.153,0.197-0.305,0.396-0.454,0.597c-0.087,0.119-0.172,0.24-0.257,0.361c-0.17,0.24-0.338,0.482-0.499,0.729
		c-0.061,0.091-0.119,0.183-0.178,0.275c-0.182,0.284-0.359,0.572-0.529,0.866c-2.231,3.813-3.486,8.226-3.475,12.855
		c-0.064-4.732,1.198-9.246,3.475-13.138c-0.022,0.038-0.047,0.074-0.068,0.111l-35.648,61.744l-23.061,39.943
		c-0.158,0.332-0.326,0.661-0.513,0.984l-8.789,15.225l-4.899,8.486c-5.988,11.94-1.698,26.625,10.02,33.391
		c5.051,2.916,10.686,3.895,16.051,3.18c0.154-0.021,0.307-0.043,0.46-0.066c0.249-0.037,0.495-0.078,0.742-0.123
		c0.19-0.035,0.381-0.07,0.571-0.109c0.198-0.041,0.396-0.086,0.592-0.131c0.232-0.053,0.464-0.107,0.693-0.168
		c0.146-0.037,0.289-0.078,0.434-0.117c0.271-0.076,0.544-0.154,0.813-0.238c0.098-0.031,0.193-0.064,0.289-0.096
		c0.307-0.1,0.609-0.203,0.911-0.314c0.063-0.023,0.123-0.049,0.185-0.072c0.325-0.123,0.65-0.252,0.971-0.389
		c0.045-0.02,0.089-0.039,0.133-0.059c0.329-0.143,0.656-0.291,0.979-0.447c0.052-0.025,0.103-0.053,0.154-0.078
		c0.309-0.152,0.614-0.309,0.917-0.475c0.084-0.045,0.165-0.094,0.247-0.139c0.265-0.148,0.529-0.301,0.789-0.457
		c0.133-0.082,0.263-0.168,0.395-0.252c0.203-0.127,0.406-0.256,0.605-0.391c0.189-0.127,0.374-0.26,0.56-0.393
		c0.138-0.1,0.275-0.193,0.41-0.295c0.234-0.176,0.464-0.355,0.691-0.537c0.083-0.066,0.168-0.131,0.25-0.199
		c0.257-0.213,0.51-0.432,0.759-0.652c0.051-0.045,0.104-0.09,0.154-0.135c0.259-0.234,0.511-0.475,0.76-0.719
		c0.041-0.043,0.084-0.082,0.126-0.123c0.241-0.24,0.476-0.486,0.706-0.736c0.051-0.055,0.104-0.107,0.152-0.162
		c0.212-0.232,0.416-0.471,0.619-0.709c0.07-0.084,0.142-0.166,0.211-0.25c0.175-0.215,0.345-0.432,0.514-0.65
		c0.094-0.123,0.189-0.246,0.283-0.371c0.138-0.188,0.273-0.377,0.406-0.566c0.118-0.17,0.236-0.342,0.35-0.516
		c0.105-0.158,0.208-0.316,0.311-0.477c0.135-0.215,0.268-0.432,0.398-0.652c0.045-0.074,0.092-0.146,0.136-0.223l10.486-18.162
		c0.241-0.597,0.522-1.185,0.854-1.758l24.225-42.1l0.034,0.224l38.336-66.627C215.689,31.501,216.109,27.085,215.471,22.853z"/>
	<linearGradient id="SVGID_3_" gradientUnits="userSpaceOnUse" x1="200.4619" y1="119.7744" x2="212.1555" y2="187.3937">
		<stop  offset="0.0666" style="stop-color:#B1E55E"/>
		<stop  offset="0.9657" style="stop-color:#79CE00"/>
	</linearGradient>
	<path fill="url(#SVGID_3_)" d="M179.834,155.059c1.955,13.902,14.809,23.59,28.712,21.635c13.903-1.953,23.59-14.807,21.636-28.709
		L219.492,75.18l-40.938,71.15L179.834,155.059z"/>
	<radialGradient id="SVGID_4_" cx="13.7676" cy="152.5088" r="118.1724" gradientUnits="userSpaceOnUse">
		<stop  offset="0" style="stop-color:#FFB300"/>
		<stop  offset="1" style="stop-color:#FF5A00"/>
	</radialGradient>
	<path fill="url(#SVGID_4_)" d="M124.748,22.462c-0.02-0.114-0.038-0.229-0.058-0.344c-0.056-0.317-0.115-0.633-0.184-0.947
		c-0.013-0.063-0.027-0.127-0.041-0.19c-0.08-0.362-0.166-0.723-0.262-1.08c-0.002-0.004-0.003-0.009-0.004-0.013
		c-0.838-3.126-2.271-6.092-4.247-8.716c-0.04-0.054-0.083-0.106-0.125-0.161c-0.2-0.262-0.406-0.522-0.618-0.777
		c-0.079-0.096-0.163-0.19-0.244-0.285c-0.181-0.211-0.362-0.421-0.552-0.626c-0.105-0.117-0.216-0.23-0.325-0.345
		c-0.173-0.183-0.347-0.364-0.526-0.542c-0.117-0.117-0.238-0.23-0.358-0.345c-0.182-0.173-0.364-0.346-0.552-0.514
		c-0.115-0.103-0.232-0.203-0.348-0.304c-0.207-0.178-0.414-0.354-0.627-0.527c-0.098-0.08-0.198-0.157-0.297-0.235
		c-0.243-0.192-0.49-0.38-0.742-0.564c-0.073-0.053-0.145-0.104-0.219-0.156c-0.289-0.207-0.583-0.409-0.885-0.604
		c-0.041-0.027-0.083-0.054-0.124-0.081c-0.337-0.217-0.681-0.428-1.033-0.631c-0.012-0.007-0.025-0.015-0.037-0.022
		c-2.649-1.526-5.458-2.522-8.303-3.021c-0.009-0.002-0.018-0.004-0.027-0.005c-0.383-0.066-0.767-0.123-1.15-0.172
		c-0.031-0.004-0.061-0.009-0.091-0.013c-0.358-0.044-0.718-0.078-1.076-0.106c-0.059-0.005-0.117-0.012-0.176-0.016
		c-0.33-0.024-0.658-0.039-0.987-0.05c-0.092-0.003-0.184-0.008-0.275-0.01c-0.3-0.007-0.599-0.005-0.898-0.002
		c-0.123,0.002-0.247,0.002-0.371,0.005c-0.274,0.008-0.549,0.022-0.822,0.039c-0.149,0.009-0.297,0.017-0.445,0.028
		c-0.26,0.02-0.52,0.047-0.78,0.075c-0.157,0.017-0.315,0.034-0.475,0.055c-0.263,0.033-0.526,0.071-0.789,0.113
		c-0.141,0.022-0.281,0.046-0.422,0.07c-0.287,0.05-0.573,0.105-0.858,0.166c-0.101,0.021-0.201,0.044-0.301,0.066
		c-0.322,0.072-0.642,0.149-0.959,0.232c-0.055,0.015-0.109,0.03-0.163,0.045c-0.356,0.097-0.711,0.2-1.063,0.312
		c-0.012,0.004-0.023,0.008-0.036,0.012c-1.536,0.493-3.027,1.131-4.449,1.91c-0.025,0.013-0.048,0.027-0.072,0.04
		c-0.322,0.178-0.64,0.362-0.953,0.553c-0.087,0.054-0.171,0.109-0.258,0.163c-0.247,0.155-0.493,0.312-0.735,0.476
		c-0.156,0.106-0.309,0.215-0.462,0.324c-0.168,0.119-0.336,0.236-0.5,0.36c-0.214,0.16-0.424,0.326-0.632,0.491
		c-0.1,0.081-0.203,0.159-0.302,0.242c-0.25,0.204-0.494,0.416-0.735,0.63c-0.057,0.051-0.115,0.099-0.172,0.151
		c-0.259,0.235-0.513,0.477-0.763,0.722c-0.039,0.038-0.079,0.075-0.117,0.113c-0.249,0.249-0.492,0.502-0.731,0.761
		c-0.04,0.044-0.08,0.086-0.12,0.13c-0.225,0.247-0.443,0.499-0.658,0.754c-0.055,0.065-0.111,0.13-0.166,0.197
		c-0.192,0.233-0.379,0.472-0.563,0.712c-0.076,0.099-0.152,0.198-0.227,0.297c-0.159,0.214-0.313,0.431-0.465,0.649
		c-0.096,0.138-0.191,0.277-0.285,0.417c-0.128,0.191-0.252,0.384-0.374,0.579c-0.111,0.176-0.22,0.354-0.326,0.532
		c-0.657,1.102-1.227,2.257-1.714,3.453L5.728,138.811c-7.02,12.159-2.854,27.705,9.304,34.727
		c11.935,6.891,27.129,2.998,34.324-8.648l35.956-62.279c0.03-0.051,0.063-0.102,0.094-0.151l-0.057-0.382
		c0.019-0.029,0.037-0.061,0.057-0.09l36.258-62.801C124.701,33.923,125.641,28.028,124.748,22.462z"/>
	<linearGradient id="SVGID_5_" gradientUnits="userSpaceOnUse" x1="110.4009" y1="8.9229" x2="68.7107" y2="79.593">
		<stop  offset="0" style="stop-color:#FF5E00"/>
		<stop  offset="1" style="stop-color:#FFB74F"/>
	</linearGradient>
	<path opacity="0.6" fill="url(#SVGID_5_)" d="M74.479,30.009l10.638,72.449c0.094-0.16,0.189-0.317,0.29-0.472l36.258-62.801
		c3.037-5.262,3.977-11.157,3.084-16.723c-0.02-0.114-0.038-0.229-0.058-0.344c-0.056-0.317-0.115-0.633-0.184-0.947
		c-0.013-0.063-0.027-0.127-0.041-0.19c-0.08-0.362-0.166-0.723-0.262-1.08c-0.002-0.004-0.003-0.009-0.004-0.013
		c-0.838-3.126-2.271-6.092-4.247-8.716c-0.04-0.054-0.083-0.106-0.125-0.161c-0.2-0.262-0.406-0.522-0.618-0.777
		c-0.079-0.096-0.163-0.19-0.244-0.285c-0.181-0.211-0.362-0.421-0.552-0.626c-0.105-0.117-0.216-0.23-0.325-0.345
		c-0.173-0.183-0.347-0.364-0.526-0.542c-0.117-0.117-0.238-0.23-0.358-0.345c-0.182-0.173-0.364-0.346-0.552-0.514
		c-0.115-0.103-0.232-0.203-0.348-0.304c-0.207-0.178-0.414-0.354-0.627-0.527c-0.098-0.08-0.198-0.157-0.297-0.235
		c-0.243-0.192-0.49-0.38-0.742-0.564c-0.073-0.053-0.145-0.104-0.219-0.156c-0.289-0.207-0.583-0.409-0.885-0.604
		c-0.041-0.027-0.083-0.054-0.124-0.081c-0.337-0.217-0.681-0.428-1.033-0.631c-0.012-0.007-0.025-0.015-0.037-0.022
		c-2.649-1.526-5.458-2.522-8.303-3.021c-0.009-0.002-0.018-0.004-0.027-0.005c-0.383-0.066-0.767-0.123-1.15-0.172
		c-0.031-0.004-0.061-0.009-0.091-0.013c-0.358-0.044-0.718-0.078-1.076-0.106c-0.059-0.005-0.117-0.012-0.176-0.016
		c-0.33-0.024-0.658-0.039-0.987-0.05c-0.092-0.003-0.184-0.008-0.275-0.01c-0.3-0.007-0.599-0.005-0.898-0.002
		c-0.123,0.002-0.247,0.002-0.371,0.005c-0.274,0.008-0.549,0.022-0.822,0.039c-0.149,0.009-0.297,0.017-0.445,0.028
		c-0.26,0.02-0.52,0.047-0.78,0.075c-0.157,0.017-0.315,0.034-0.475,0.055c-0.263,0.033-0.526,0.071-0.789,0.113
		c-0.141,0.022-0.281,0.046-0.422,0.07c-0.287,0.05-0.573,0.105-0.858,0.166c-0.101,0.021-0.201,0.044-0.301,0.066
		c-0.322,0.072-0.642,0.149-0.959,0.232c-0.055,0.015-0.109,0.03-0.163,0.045c-0.356,0.097-0.711,0.2-1.063,0.312
		c-0.012,0.004-0.023,0.008-0.036,0.012c-1.536,0.493-3.027,1.131-4.449,1.91c-0.025,0.013-0.048,0.027-0.072,0.04
		c-0.322,0.178-0.64,0.362-0.953,0.553c-0.087,0.054-0.171,0.109-0.258,0.163c-0.247,0.155-0.493,0.312-0.735,0.476
		c-0.156,0.106-0.309,0.215-0.462,0.324c-0.168,0.119-0.336,0.236-0.5,0.36c-0.215,0.16-0.424,0.326-0.632,0.491
		c-0.101,0.081-0.203,0.159-0.302,0.242c-0.25,0.204-0.494,0.416-0.735,0.63c-0.057,0.051-0.115,0.099-0.172,0.151
		c-0.259,0.235-0.513,0.477-0.763,0.722c-0.039,0.038-0.078,0.075-0.117,0.113c-0.249,0.249-0.492,0.502-0.731,0.761
		c-0.04,0.044-0.081,0.086-0.12,0.13c-0.225,0.247-0.443,0.499-0.658,0.754c-0.055,0.065-0.111,0.13-0.166,0.197
		c-0.192,0.233-0.379,0.472-0.563,0.712c-0.075,0.099-0.151,0.198-0.226,0.297c-0.159,0.214-0.313,0.431-0.465,0.649
		c-0.096,0.138-0.192,0.277-0.285,0.417c-0.127,0.191-0.252,0.384-0.375,0.579c-0.11,0.176-0.219,0.354-0.325,0.532
		C74.949,18.276,73.64,24.044,74.479,30.009z"/>
	<linearGradient id="SVGID_6_" gradientUnits="userSpaceOnUse" x1="108.6294" y1="92.6729" x2="121.1703" y2="160.1227">
		<stop  offset="0" style="stop-color:#FF5E00"/>
		<stop  offset="1" style="stop-color:#FFB74F"/>
	</linearGradient>
	<path opacity="0.6" fill="url(#SVGID_6_)" d="M143.316,147.855l-10.643-72.476l-23.061,39.943
		c-0.158,0.332-0.326,0.661-0.513,0.984l-8.789,15.225l-4.899,8.486c-5.988,11.94-1.698,26.625,10.02,33.391
		c5.051,2.916,10.686,3.895,16.051,3.18c0.154-0.021,0.307-0.043,0.46-0.066c0.249-0.037,0.495-0.078,0.742-0.123
		c0.19-0.035,0.381-0.07,0.571-0.109c0.198-0.041,0.396-0.086,0.592-0.131c0.232-0.053,0.464-0.107,0.693-0.168
		c0.146-0.037,0.289-0.078,0.434-0.117c0.271-0.076,0.544-0.154,0.813-0.238c0.098-0.031,0.193-0.064,0.289-0.096
		c0.307-0.1,0.609-0.203,0.911-0.314c0.063-0.023,0.123-0.049,0.185-0.072c0.325-0.123,0.65-0.252,0.971-0.389
		c0.045-0.02,0.089-0.039,0.133-0.059c0.329-0.143,0.656-0.291,0.979-0.447c0.052-0.025,0.103-0.053,0.154-0.078
		c0.309-0.152,0.614-0.309,0.917-0.475c0.084-0.045,0.165-0.094,0.247-0.139c0.265-0.148,0.529-0.301,0.789-0.457
		c0.133-0.082,0.263-0.168,0.395-0.252c0.203-0.127,0.406-0.256,0.605-0.391c0.189-0.127,0.374-0.26,0.56-0.393
		c0.138-0.1,0.275-0.193,0.41-0.295c0.234-0.176,0.464-0.355,0.691-0.537c0.083-0.066,0.168-0.131,0.25-0.199
		c0.257-0.213,0.51-0.432,0.759-0.652c0.051-0.045,0.104-0.09,0.154-0.135c0.259-0.234,0.511-0.475,0.76-0.719
		c0.041-0.043,0.084-0.082,0.126-0.123c0.241-0.24,0.476-0.486,0.706-0.736c0.051-0.055,0.104-0.107,0.152-0.162
		c0.212-0.232,0.416-0.471,0.619-0.709c0.07-0.084,0.142-0.166,0.211-0.25c0.175-0.215,0.345-0.432,0.514-0.65
		c0.094-0.123,0.189-0.246,0.283-0.371c0.138-0.188,0.273-0.377,0.406-0.566c0.118-0.17,0.236-0.342,0.35-0.516
		c0.105-0.158,0.208-0.316,0.311-0.477c0.135-0.215,0.268-0.432,0.398-0.652C142.855,159.537,144.15,153.793,143.316,147.855z"/>
	<linearGradient id="SVGID_7_" gradientUnits="userSpaceOnUse" x1="206.6992" y1="4.2471" x2="154.332" y2="85.5943">
		<stop  offset="0.0666" style="stop-color:#B1E55E"/>
		<stop  offset="0.9657" style="stop-color:#D4DE00"/>
	</linearGradient>
	<path opacity="0.6" fill="url(#SVGID_7_)" d="M165.162,30.162l10.594,72.144l38.336-66.627c1.598-4.177,2.018-8.593,1.379-12.826
		c-0.04-0.265-0.085-0.528-0.131-0.791c-0.033-0.178-0.067-0.354-0.104-0.531c-0.043-0.21-0.09-0.42-0.137-0.628
		c-0.053-0.223-0.105-0.445-0.162-0.667c-0.039-0.152-0.082-0.302-0.123-0.453c-0.075-0.267-0.151-0.535-0.234-0.798
		c-0.032-0.1-0.064-0.198-0.098-0.296c-0.101-0.305-0.203-0.609-0.314-0.91c-0.022-0.059-0.045-0.117-0.068-0.176
		c-0.125-0.33-0.255-0.658-0.393-0.983c-0.016-0.037-0.033-0.073-0.05-0.109c-0.146-0.339-0.299-0.674-0.46-1.006
		c-0.018-0.037-0.037-0.073-0.055-0.109c-0.16-0.325-0.325-0.647-0.499-0.966c-0.034-0.062-0.069-0.121-0.104-0.182
		c-0.16-0.288-0.325-0.574-0.497-0.857c-0.063-0.104-0.131-0.207-0.196-0.311c-0.146-0.232-0.294-0.465-0.448-0.693
		c-0.104-0.155-0.215-0.307-0.323-0.46c-0.121-0.172-0.242-0.343-0.368-0.512c-0.146-0.198-0.3-0.39-0.453-0.583
		c-0.096-0.12-0.189-0.242-0.287-0.361c-0.182-0.219-0.368-0.434-0.557-0.647c-0.078-0.089-0.156-0.18-0.235-0.268
		c-0.2-0.221-0.406-0.435-0.612-0.648c-0.08-0.081-0.156-0.162-0.236-0.242c-0.203-0.204-0.412-0.401-0.622-0.597
		c-0.095-0.089-0.188-0.178-0.284-0.266c-0.192-0.175-0.391-0.344-0.588-0.513c-0.126-0.107-0.252-0.215-0.381-0.321
		c-0.17-0.14-0.345-0.275-0.519-0.411c-0.17-0.131-0.341-0.263-0.515-0.39c-0.141-0.104-0.283-0.205-0.425-0.305
		c-0.222-0.156-0.444-0.31-0.671-0.459c-0.106-0.07-0.214-0.139-0.321-0.208c-0.272-0.173-0.548-0.343-0.828-0.506
		c-0.076-0.044-0.151-0.089-0.229-0.133c-0.312-0.178-0.625-0.348-0.94-0.511c-0.059-0.031-0.117-0.062-0.176-0.091
		c-0.329-0.168-0.662-0.327-0.996-0.479c-0.053-0.023-0.103-0.048-0.154-0.071c-0.341-0.152-0.684-0.295-1.027-0.431
		c-0.049-0.019-0.097-0.04-0.146-0.059c-0.347-0.135-0.696-0.26-1.047-0.378c-0.047-0.017-0.096-0.034-0.143-0.05
		c-0.354-0.117-0.708-0.224-1.064-0.326c-0.046-0.013-0.092-0.028-0.137-0.04c-0.359-0.101-0.719-0.189-1.079-0.272
		c-0.046-0.011-0.089-0.023-0.135-0.033c-0.358-0.081-0.719-0.151-1.079-0.216c-0.048-0.009-0.097-0.019-0.146-0.028
		c-0.353-0.061-0.705-0.112-1.059-0.158c-0.059-0.007-0.117-0.017-0.177-0.024c-0.338-0.042-0.677-0.073-1.017-0.101
		c-0.077-0.006-0.151-0.015-0.229-0.02c-0.319-0.023-0.64-0.038-0.959-0.049c-0.099-0.003-0.196-0.009-0.296-0.011
		c-0.299-0.007-0.598-0.005-0.896-0.001c-0.121,0.001-0.242,0.001-0.365,0.005c-0.281,0.007-0.563,0.022-0.845,0.039
		c-0.137,0.008-0.274,0.016-0.413,0.027c-0.273,0.021-0.548,0.048-0.822,0.078c-0.14,0.016-0.279,0.031-0.421,0.049
		c-0.284,0.036-0.567,0.076-0.851,0.122c-0.115,0.018-0.231,0.038-0.347,0.058c-0.315,0.055-0.628,0.114-0.939,0.181
		c-0.069,0.015-0.138,0.03-0.205,0.044c-0.355,0.08-0.709,0.164-1.06,0.257c-0.015,0.004-0.028,0.008-0.043,0.012
		c-2.73,0.735-5.339,1.922-7.703,3.529c-0.043,0.029-0.086,0.06-0.128,0.089c-0.282,0.195-0.563,0.394-0.837,0.601
		c-0.103,0.077-0.202,0.158-0.305,0.236c-0.212,0.166-0.425,0.332-0.633,0.504c-0.143,0.118-0.282,0.24-0.422,0.362
		c-0.163,0.141-0.327,0.282-0.488,0.428c-0.16,0.146-0.316,0.298-0.475,0.449c-0.136,0.132-0.273,0.262-0.408,0.397
		c-0.158,0.159-0.313,0.323-0.467,0.487c-0.131,0.138-0.262,0.276-0.39,0.417c-0.142,0.157-0.279,0.318-0.416,0.478
		c-0.14,0.162-0.277,0.323-0.412,0.489c-0.116,0.142-0.229,0.287-0.342,0.431c-0.153,0.197-0.305,0.396-0.454,0.597
		c-0.087,0.119-0.172,0.24-0.257,0.361c-0.17,0.24-0.338,0.482-0.499,0.729c-0.061,0.091-0.119,0.183-0.178,0.275
		c-0.182,0.284-0.359,0.572-0.529,0.866C165.603,18.572,164.335,24.271,165.162,30.162z"/>
</g>
</svg>
