<?xml version="1.0" encoding="utf-8"?>
<!-- Generator: Adobe Illustrator 16.0.0, SVG Export Plug-In . SVG Version: 6.00 Build 0)  -->
<!DOCTYPE svg PUBLIC "-//W3C//DTD SVG 1.1//EN" "http://www.w3.org/Graphics/SVG/1.1/DTD/svg11.dtd">
<svg version="1.1" id="레이어_1" xmlns="http://www.w3.org/2000/svg" xmlns:xlink="http://www.w3.org/1999/xlink" x="0px"
	 y="0px" width="283.445px" height="298.522px" viewBox="0 0 283.445 298.522" enable-background="new 0 0 283.445 298.522"
	 xml:space="preserve">
<g>
	<g>
		<g>
			<g>
				<path fill="#FF6700" d="M28.259,218.579c1.638,0,3.085,0.248,4.343,0.745s2.31,1.142,3.159,1.931
					c0.848,0.789,1.483,1.682,1.907,2.676c0.425,0.994,0.637,1.988,0.637,2.982v1.756c0,1.023-0.212,2.032-0.637,3.025
					c-0.424,0.995-1.06,1.887-1.907,2.677c-0.85,0.79-1.901,1.426-3.159,1.909c-1.258,0.482-2.705,0.723-4.343,0.723
					s-3.086-0.24-4.343-0.723c-1.258-0.483-2.311-1.119-3.159-1.909c-0.848-0.79-1.484-1.682-1.908-2.677
					c-0.424-0.993-0.636-2.002-0.636-3.025v-1.756c0-0.994,0.212-1.988,0.636-2.982s1.061-1.887,1.908-2.676
					c0.849-0.789,1.901-1.434,3.159-1.931C25.173,218.827,26.621,218.579,28.259,218.579z M28.259,233.274
					c0.936,0,1.769-0.139,2.5-0.417c0.731-0.276,1.346-0.643,1.843-1.097c0.497-0.453,0.878-0.972,1.141-1.557
					c0.264-0.586,0.395-1.186,0.395-1.799v-1.229c0-0.613-0.131-1.213-0.395-1.799c-0.263-0.584-0.644-1.096-1.141-1.535
					c-0.497-0.438-1.111-0.797-1.843-1.074c-0.731-0.278-1.564-0.418-2.5-0.418c-0.937,0-1.77,0.133-2.501,0.395
					c-0.73,0.264-1.345,0.623-1.842,1.076c-0.498,0.453-0.878,0.973-1.141,1.557c-0.263,0.586-0.396,1.186-0.396,1.799v1.229
					c0,0.613,0.133,1.213,0.396,1.799c0.263,0.585,0.643,1.104,1.141,1.557c0.497,0.454,1.111,0.82,1.842,1.097
					C26.489,233.135,27.322,233.274,28.259,233.274z M25.231,258.717v-11.055h20.794v-3.904H25.013v-3.598H50.28v11.012H29.487
					v3.947h21.934v3.598H25.231z M45.981,238.143v-20.135h4.299v20.135H45.981z"/>
			</g>
		</g>
		<g>
			<g>
				<path fill="#FF6700" d="M68.442,231.958c-0.117,0.381-0.469,0.907-1.053,1.58c-0.585,0.672-1.215,1.315-1.887,1.93
					c-0.907,0.85-1.96,1.776-3.159,2.785c-1.199,1.01-2.384,1.982-3.553,2.918l-2.589-3.071c1.404-1.081,2.742-2.163,4.015-3.246
					c1.271-1.081,2.287-2.003,3.049-2.764c0.555-0.555,1.016-1.089,1.381-1.601c0.366-0.512,0.658-1.038,0.878-1.58
					c0.219-0.541,0.373-1.118,0.46-1.732c0.088-0.613,0.133-1.301,0.133-2.063v-5.307h4.388v5.131c0,0.674,0.021,1.281,0.065,1.821
					c0.043,0.542,0.139,1.046,0.285,1.514c0.146,0.469,0.372,0.929,0.68,1.382c0.308,0.454,0.724,0.914,1.251,1.383
					c1.022,0.936,2.142,1.9,3.355,2.895c1.213,0.994,2.479,1.959,3.794,2.896l-2.544,3.026c-1.141-0.848-2.23-1.703-3.269-2.566
					c-1.038-0.862-2.084-1.732-3.136-2.609c-0.674-0.555-1.222-1.068-1.646-1.535c-0.425-0.469-0.71-0.863-0.855-1.186H68.442z
					 M64.274,250.12c0-1.054,0.277-2.047,0.834-2.983c0.555-0.936,1.359-1.755,2.413-2.457c1.053-0.702,2.332-1.257,3.838-1.667
					c1.506-0.408,3.209-0.613,5.111-0.613c1.9,0,3.604,0.205,5.11,0.613c1.506,0.41,2.786,0.965,3.838,1.667
					c1.054,0.702,1.857,1.521,2.413,2.457c0.556,0.937,0.834,1.93,0.834,2.983v1.755c0,1.052-0.278,2.046-0.834,2.983
					c-0.556,0.935-1.359,1.754-2.413,2.455c-1.052,0.702-2.332,1.258-3.838,1.668c-1.507,0.408-3.21,0.613-5.11,0.613
					c-1.902,0-3.605-0.205-5.111-0.613c-1.506-0.41-2.785-0.966-3.838-1.668c-1.054-0.701-1.858-1.521-2.413-2.455
					c-0.557-0.938-0.834-1.932-0.834-2.983V250.12z M84.41,250.383c0-0.527-0.183-1.061-0.548-1.602
					c-0.366-0.541-0.893-1.017-1.58-1.426c-0.688-0.41-1.521-0.746-2.5-1.01c-0.98-0.263-2.084-0.395-3.312-0.395
					c-1.229,0-2.333,0.132-3.313,0.395c-0.98,0.264-1.813,0.6-2.5,1.01c-0.688,0.409-1.214,0.885-1.58,1.426
					s-0.548,1.074-0.548,1.602v1.228c0,0.526,0.182,1.06,0.548,1.602c0.366,0.54,0.893,1.015,1.58,1.425
					c0.687,0.409,1.52,0.746,2.5,1.01c0.979,0.263,2.084,0.395,3.313,0.395c1.228,0,2.331-0.132,3.312-0.395
					c0.979-0.264,1.813-0.601,2.5-1.01c0.688-0.41,1.214-0.885,1.58-1.425c0.365-0.542,0.548-1.075,0.548-1.602V250.383z
					 M94.237,231.563H88.49v10.309h-4.299v-23.863h4.299v9.782h5.747V231.563z"/>
			</g>
		</g>
		<g>
			<g>
				<path fill="#FF6700" d="M133.717,235.643v3.598H96.604v-3.598H133.717z M101.912,258.717v-10.133h22.198v-2.983h-22.417v-3.554
					h26.672v10.002h-22.197v3.115h23.382v3.553H101.912z M115.161,218.227c2.018,0,3.823,0.168,5.417,0.505s2.946,0.812,4.059,1.425
					c1.11,0.615,1.966,1.354,2.565,2.216c0.6,0.863,0.899,1.807,0.899,2.829v1.054c0,1.024-0.3,1.967-0.899,2.829
					c-0.6,0.863-1.455,1.602-2.565,2.215c-1.112,0.614-2.465,1.091-4.059,1.426c-1.594,0.337-3.399,0.506-5.417,0.506
					c-2.019,0-3.824-0.169-5.418-0.506c-1.595-0.335-2.947-0.812-4.058-1.426c-1.112-0.613-1.968-1.352-2.566-2.215
					c-0.6-0.862-0.899-1.805-0.899-2.829v-1.054c0-1.022,0.3-1.966,0.899-2.829c0.599-0.862,1.454-1.601,2.566-2.216
					c1.11-0.613,2.463-1.088,4.058-1.425C111.337,218.395,113.143,218.227,115.161,218.227z M115.161,229.633
					c2.777,0,4.92-0.344,6.427-1.031c1.506-0.687,2.259-1.498,2.259-2.435v-0.878c0-0.936-0.753-1.746-2.259-2.435
					c-1.507-0.687-3.649-1.03-6.427-1.03c-2.779,0-4.921,0.344-6.427,1.03c-1.507,0.688-2.26,1.499-2.26,2.435v0.878
					c0,0.937,0.753,1.748,2.26,2.435C110.24,229.29,112.382,229.633,115.161,229.633z"/>
			</g>
		</g>
		<g>
			<g>
				<path fill="#FFA92C" d="M184.604,235.117v3.597h-37.112v-3.597H184.604z M166.004,227.659c-0.117,0.234-0.366,0.482-0.746,0.746
					c-0.381,0.264-0.833,0.541-1.359,0.834c-0.527,0.291-1.068,0.563-1.624,0.811c-0.556,0.25-1.067,0.461-1.535,0.637
					c-1.491,0.585-2.932,1.104-4.32,1.557c-1.39,0.454-2.83,0.915-4.321,1.383l-1.492-3.554c1.755-0.497,3.298-0.966,4.629-1.403
					c1.33-0.439,2.581-0.893,3.75-1.361c1.434-0.584,2.603-1.234,3.51-1.951c0.906-0.717,1.36-1.543,1.36-2.479v-0.133h-11.538
					v-3.597h27.462v3.597h-11.581v0.133c0,0.936,0.438,1.74,1.316,2.412c0.877,0.674,2.062,1.331,3.553,1.975
					c1.141,0.498,2.391,0.965,3.751,1.404c1.359,0.438,2.901,0.906,4.628,1.403l-1.447,3.554c-1.551-0.497-3.013-0.973-4.388-1.426
					s-2.764-0.958-4.167-1.514c-0.468-0.176-0.995-0.395-1.579-0.658c-0.585-0.264-1.141-0.533-1.667-0.812
					c-0.527-0.278-0.987-0.548-1.382-0.812c-0.396-0.264-0.651-0.512-0.768-0.746H166.004z M152.799,258.717v-10.133h22.198v-3.071
					H152.58v-3.554h26.672v10.09h-22.197v3.115h23.382v3.553H152.799z"/>
			</g>
		</g>
		<g>
			<g>
				<path fill="#FFA92C" d="M189.122,246.17c2.34-1.373,4.321-2.594,5.943-3.662c1.624-1.068,2.977-2.047,4.059-2.939
					c1.081-0.892,1.93-1.726,2.544-2.5c0.614-0.775,1.075-1.551,1.382-2.326c0.308-0.773,0.497-1.585,0.57-2.434
					c0.073-0.848,0.11-1.799,0.11-2.852v-3.992h-13.819v-3.729h18.118v7.764c0,1.316-0.037,2.509-0.11,3.576
					c-0.072,1.067-0.284,2.076-0.636,3.027c-0.351,0.949-0.87,1.886-1.558,2.807c-0.688,0.922-1.652,1.908-2.895,2.961
					c-1.243,1.054-2.794,2.209-4.65,3.466c-1.857,1.259-4.116,2.691-6.777,4.3L189.122,246.17z M216.584,258.455v-40.446h4.342
					v40.446H216.584z"/>
			</g>
		</g>
		<g>
			<g>
				<path fill="#FFA92C" d="M247.948,225.421h-14.257v18.601h2.324c2.866,0,5.55-0.096,8.05-0.285
					c2.501-0.189,4.994-0.476,7.479-0.855l0.571,3.641c-2.604,0.469-5.272,0.797-8.007,0.986c-2.735,0.191-5.739,0.286-9.015,0.286
					h-5.747v-26.146h18.601V225.421z M265.232,236.388h-6.229v22.066h-4.343v-40.446h4.343v14.607h6.229V236.388z"/>
			</g>
		</g>
	</g>
</g>
<g>
	<text transform="matrix(1 0 0 1 1.1353 298.522)" fill="#404040" font-family="'NanumSquareRoundEB'" font-size="36.1271">MEDIA MOMENT</text>
</g>
<g>
	<linearGradient id="SVGID_1_" gradientUnits="userSpaceOnUse" x1="128.0234" y1="45.7236" x2="139.2085" y2="116.9015">
		<stop  offset="0" style="stop-color:#FFC953"/>
		<stop  offset="1" style="stop-color:#FFC754"/>
	</linearGradient>
	<path fill="url(#SVGID_1_)" d="M147.011,37.979l-36.257,62.801c3.978-6.128,12.104-8.131,18.504-4.437
		c6.289,3.631,8.642,11.457,5.574,17.902l23.061-39.942l-7.719-52.574c-0.022-0.159-0.054-0.314-0.078-0.472
		C150.988,26.821,150.049,32.717,147.011,37.979z"/>
	<linearGradient id="SVGID_2_" gradientUnits="userSpaceOnUse" x1="225.0596" y1="22.1587" x2="133.0362" y2="154.8553">
		<stop  offset="0" style="stop-color:#D4DE00"/>
		<stop  offset="1" style="stop-color:#FF9A00"/>
	</linearGradient>
	<path fill="url(#SVGID_2_)" d="M240.818,21.646c-0.04-0.265-0.085-0.528-0.131-0.791c-0.033-0.178-0.067-0.354-0.104-0.531
		c-0.043-0.21-0.09-0.42-0.137-0.628c-0.053-0.223-0.105-0.445-0.162-0.667c-0.039-0.152-0.082-0.302-0.123-0.453
		c-0.075-0.267-0.151-0.535-0.234-0.798c-0.032-0.1-0.064-0.198-0.098-0.296c-0.101-0.305-0.203-0.609-0.314-0.91
		c-0.022-0.059-0.045-0.117-0.068-0.176c-0.125-0.33-0.255-0.658-0.393-0.983c-0.016-0.037-0.033-0.073-0.05-0.109
		c-0.146-0.339-0.299-0.674-0.46-1.006c-0.018-0.037-0.037-0.073-0.055-0.109c-0.16-0.325-0.325-0.647-0.499-0.966
		c-0.034-0.062-0.069-0.121-0.104-0.182c-0.16-0.288-0.325-0.574-0.497-0.857c-0.063-0.104-0.131-0.207-0.196-0.311
		c-0.146-0.232-0.294-0.465-0.448-0.693c-0.104-0.155-0.215-0.307-0.323-0.46c-0.121-0.172-0.242-0.343-0.368-0.512
		c-0.146-0.198-0.3-0.39-0.453-0.583c-0.096-0.12-0.189-0.242-0.287-0.361c-0.182-0.219-0.368-0.434-0.557-0.647
		c-0.078-0.089-0.156-0.18-0.235-0.268c-0.2-0.221-0.406-0.435-0.612-0.648c-0.08-0.081-0.156-0.162-0.236-0.242
		c-0.203-0.204-0.412-0.401-0.622-0.597c-0.095-0.089-0.188-0.178-0.284-0.266c-0.192-0.175-0.391-0.344-0.588-0.513
		c-0.126-0.107-0.252-0.215-0.381-0.321c-0.17-0.14-0.345-0.275-0.519-0.411c-0.17-0.131-0.341-0.263-0.515-0.39
		c-0.141-0.104-0.283-0.205-0.425-0.305c-0.222-0.156-0.444-0.31-0.671-0.459c-0.106-0.07-0.214-0.139-0.321-0.208
		c-0.272-0.173-0.548-0.343-0.828-0.506c-0.076-0.044-0.151-0.089-0.229-0.133c-0.312-0.178-0.625-0.348-0.94-0.511
		c-0.059-0.031-0.117-0.062-0.176-0.091c-0.329-0.168-0.662-0.327-0.996-0.479c-0.053-0.023-0.103-0.048-0.154-0.071
		c-0.341-0.152-0.684-0.295-1.027-0.431c-0.049-0.019-0.097-0.04-0.146-0.059c-0.347-0.135-0.696-0.26-1.047-0.378
		c-0.047-0.017-0.096-0.034-0.143-0.05c-0.354-0.117-0.708-0.224-1.064-0.326c-0.046-0.013-0.092-0.028-0.137-0.04
		c-0.359-0.101-0.719-0.189-1.079-0.272c-0.046-0.011-0.089-0.023-0.135-0.033c-0.358-0.081-0.719-0.151-1.079-0.216
		c-0.048-0.009-0.097-0.019-0.146-0.028c-0.353-0.061-0.705-0.112-1.059-0.158c-0.059-0.007-0.117-0.017-0.177-0.024
		c-0.338-0.042-0.677-0.073-1.017-0.101c-0.077-0.006-0.151-0.015-0.229-0.02c-0.319-0.023-0.64-0.038-0.959-0.049
		c-0.099-0.003-0.196-0.009-0.296-0.011c-0.299-0.007-0.598-0.005-0.896-0.001c-0.121,0.001-0.242,0.001-0.365,0.005
		c-0.281,0.007-0.563,0.022-0.845,0.039c-0.137,0.008-0.274,0.016-0.413,0.027c-0.273,0.021-0.548,0.048-0.822,0.078
		c-0.14,0.016-0.279,0.031-0.421,0.049c-0.284,0.036-0.567,0.076-0.851,0.122c-0.115,0.018-0.231,0.038-0.347,0.058
		c-0.315,0.055-0.628,0.114-0.939,0.181c-0.069,0.015-0.138,0.03-0.205,0.044c-0.355,0.08-0.709,0.164-1.06,0.257
		c-0.015,0.004-0.028,0.008-0.043,0.012c-2.73,0.735-5.339,1.922-7.703,3.529c-0.043,0.029-0.086,0.06-0.128,0.089
		c-0.282,0.195-0.563,0.394-0.837,0.601c-0.103,0.077-0.202,0.158-0.305,0.236c-0.212,0.166-0.425,0.332-0.633,0.504
		c-0.143,0.118-0.282,0.24-0.422,0.362c-0.163,0.141-0.327,0.282-0.488,0.428c-0.16,0.146-0.316,0.298-0.475,0.449
		c-0.136,0.132-0.273,0.262-0.408,0.397c-0.158,0.159-0.313,0.323-0.467,0.487c-0.131,0.138-0.262,0.276-0.39,0.417
		c-0.142,0.157-0.279,0.318-0.416,0.478c-0.14,0.162-0.277,0.323-0.412,0.489c-0.116,0.142-0.229,0.287-0.342,0.431
		c-0.153,0.197-0.305,0.396-0.454,0.597c-0.087,0.119-0.172,0.24-0.257,0.361c-0.17,0.24-0.338,0.482-0.499,0.729
		c-0.061,0.091-0.119,0.183-0.178,0.275c-0.182,0.284-0.359,0.572-0.529,0.866c-2.231,3.813-3.486,8.226-3.475,12.855
		c-0.064-4.732,1.198-9.246,3.475-13.138c-0.022,0.038-0.047,0.074-0.068,0.111l-35.648,61.744l-23.061,39.942
		c-0.158,0.332-0.326,0.661-0.513,0.985l-8.789,15.225l-4.899,8.486c-5.988,11.94-1.698,26.625,10.02,33.39
		c5.051,2.917,10.685,3.896,16.051,3.181c0.154-0.021,0.307-0.043,0.459-0.066c0.249-0.037,0.496-0.078,0.742-0.123
		c0.19-0.035,0.381-0.07,0.571-0.11c0.199-0.04,0.396-0.085,0.592-0.13c0.232-0.053,0.464-0.107,0.693-0.168
		c0.146-0.037,0.289-0.078,0.434-0.118c0.271-0.075,0.544-0.153,0.813-0.238c0.098-0.03,0.193-0.063,0.289-0.095
		c0.307-0.1,0.609-0.203,0.911-0.315c0.063-0.022,0.123-0.048,0.185-0.071c0.325-0.123,0.65-0.252,0.971-0.389
		c0.045-0.02,0.089-0.039,0.133-0.059c0.329-0.143,0.656-0.291,0.979-0.447c0.052-0.025,0.103-0.053,0.154-0.078
		c0.309-0.152,0.614-0.31,0.917-0.475c0.084-0.045,0.165-0.094,0.247-0.139c0.265-0.148,0.529-0.301,0.789-0.458
		c0.133-0.081,0.263-0.167,0.395-0.251c0.203-0.127,0.406-0.256,0.605-0.391c0.189-0.127,0.374-0.26,0.56-0.393
		c0.138-0.1,0.275-0.194,0.41-0.295c0.234-0.176,0.464-0.355,0.691-0.537c0.083-0.066,0.168-0.132,0.25-0.199
		c0.257-0.213,0.51-0.432,0.759-0.652c0.051-0.046,0.104-0.09,0.154-0.135c0.259-0.234,0.511-0.475,0.76-0.719
		c0.041-0.043,0.084-0.082,0.126-0.123c0.241-0.24,0.476-0.487,0.706-0.736c0.051-0.055,0.104-0.107,0.152-0.163
		c0.212-0.231,0.416-0.47,0.619-0.709c0.07-0.083,0.142-0.165,0.211-0.25c0.175-0.214,0.345-0.431,0.514-0.649
		c0.094-0.123,0.189-0.246,0.283-0.371c0.138-0.188,0.273-0.378,0.406-0.567c0.118-0.17,0.236-0.341,0.35-0.515
		c0.105-0.158,0.208-0.316,0.311-0.478c0.135-0.214,0.268-0.432,0.398-0.651c0.045-0.075,0.092-0.146,0.136-0.223l10.486-18.163
		c0.241-0.597,0.522-1.185,0.854-1.758l24.225-42.1l0.034,0.224l38.336-66.627C241.037,30.295,241.457,25.879,240.818,21.646z"/>
	<linearGradient id="SVGID_3_" gradientUnits="userSpaceOnUse" x1="225.8096" y1="118.5679" x2="237.5032" y2="186.1871">
		<stop  offset="0.0666" style="stop-color:#B1E55E"/>
		<stop  offset="0.9657" style="stop-color:#79CE00"/>
	</linearGradient>
	<path fill="url(#SVGID_3_)" d="M205.182,153.852c1.955,13.902,14.809,23.59,28.712,21.635c13.903-1.953,23.59-14.807,21.636-28.71
		L244.84,73.973l-40.938,71.149L205.182,153.852z"/>
	<radialGradient id="SVGID_4_" cx="39.1152" cy="151.3022" r="118.1724" gradientUnits="userSpaceOnUse">
		<stop  offset="0" style="stop-color:#FFB300"/>
		<stop  offset="1" style="stop-color:#FF5A00"/>
	</radialGradient>
	<path fill="url(#SVGID_4_)" d="M150.096,21.256c-0.02-0.114-0.038-0.229-0.058-0.344c-0.056-0.317-0.115-0.633-0.184-0.947
		c-0.013-0.063-0.027-0.127-0.041-0.19c-0.08-0.362-0.166-0.723-0.262-1.08c-0.002-0.004-0.003-0.009-0.004-0.013
		c-0.838-3.126-2.271-6.092-4.247-8.716c-0.041-0.054-0.083-0.106-0.125-0.161c-0.2-0.262-0.406-0.522-0.618-0.777
		c-0.08-0.096-0.163-0.19-0.244-0.285c-0.181-0.211-0.363-0.421-0.551-0.626c-0.106-0.117-0.216-0.23-0.326-0.345
		c-0.173-0.183-0.347-0.364-0.526-0.542c-0.117-0.117-0.238-0.23-0.358-0.345C142.37,6.711,142.188,6.538,142,6.37
		c-0.114-0.103-0.231-0.203-0.348-0.304c-0.207-0.178-0.413-0.354-0.626-0.527c-0.098-0.08-0.198-0.157-0.297-0.235
		c-0.243-0.192-0.49-0.38-0.742-0.564c-0.073-0.053-0.145-0.104-0.219-0.156c-0.289-0.207-0.583-0.409-0.885-0.604
		c-0.041-0.027-0.083-0.054-0.124-0.081c-0.337-0.217-0.681-0.428-1.033-0.631c-0.012-0.007-0.025-0.015-0.037-0.022
		c-2.649-1.526-5.458-2.522-8.303-3.021c-0.009-0.002-0.018-0.004-0.027-0.005c-0.383-0.066-0.767-0.123-1.15-0.172
		c-0.031-0.004-0.061-0.009-0.091-0.013c-0.358-0.044-0.718-0.078-1.076-0.106c-0.059-0.005-0.117-0.012-0.176-0.016
		c-0.33-0.024-0.658-0.039-0.987-0.05c-0.092-0.003-0.184-0.008-0.275-0.01c-0.3-0.007-0.599-0.005-0.898-0.002
		c-0.123,0.002-0.247,0.002-0.371,0.005c-0.274,0.008-0.549,0.022-0.822,0.039c-0.149,0.009-0.297,0.017-0.445,0.028
		c-0.26,0.02-0.52,0.047-0.78,0.075c-0.157,0.017-0.315,0.034-0.475,0.055c-0.263,0.033-0.526,0.071-0.789,0.113
		c-0.141,0.022-0.281,0.046-0.422,0.07c-0.287,0.05-0.573,0.105-0.858,0.166c-0.101,0.021-0.201,0.044-0.301,0.066
		c-0.322,0.072-0.642,0.149-0.959,0.232c-0.055,0.015-0.109,0.03-0.163,0.045c-0.356,0.097-0.711,0.2-1.063,0.312
		c-0.012,0.004-0.023,0.008-0.036,0.012c-1.536,0.493-3.027,1.131-4.449,1.91c-0.025,0.013-0.048,0.027-0.072,0.04
		c-0.322,0.178-0.64,0.362-0.953,0.553c-0.087,0.054-0.171,0.109-0.258,0.163c-0.247,0.155-0.493,0.312-0.735,0.476
		c-0.156,0.106-0.309,0.215-0.462,0.324c-0.168,0.119-0.336,0.236-0.5,0.36c-0.214,0.16-0.424,0.326-0.632,0.491
		c-0.1,0.081-0.203,0.159-0.302,0.242c-0.25,0.204-0.494,0.416-0.735,0.63c-0.057,0.051-0.115,0.099-0.172,0.151
		c-0.259,0.235-0.513,0.477-0.763,0.722c-0.039,0.038-0.079,0.075-0.117,0.113c-0.249,0.249-0.492,0.502-0.731,0.761
		c-0.04,0.044-0.08,0.086-0.12,0.13c-0.225,0.247-0.443,0.499-0.658,0.754c-0.055,0.065-0.111,0.13-0.166,0.197
		c-0.192,0.233-0.379,0.472-0.563,0.712c-0.076,0.099-0.152,0.198-0.227,0.297c-0.159,0.214-0.313,0.431-0.465,0.649
		c-0.096,0.138-0.191,0.277-0.285,0.417c-0.128,0.191-0.252,0.384-0.374,0.579c-0.111,0.176-0.22,0.354-0.326,0.532
		c-0.657,1.102-1.227,2.257-1.714,3.453L31.076,137.604c-7.02,12.159-2.854,27.706,9.304,34.727
		c11.935,6.89,27.129,2.997,34.324-8.648l35.956-62.279c0.03-0.052,0.063-0.102,0.094-0.152l-0.057-0.381
		c0.019-0.03,0.037-0.061,0.057-0.09l36.257-62.801C150.049,32.717,150.988,26.821,150.096,21.256z"/>
	<linearGradient id="SVGID_5_" gradientUnits="userSpaceOnUse" x1="135.7485" y1="7.7163" x2="94.0584" y2="78.3863">
		<stop  offset="0" style="stop-color:#FF5E00"/>
		<stop  offset="1" style="stop-color:#FFB74F"/>
	</linearGradient>
	<path opacity="0.6" fill="url(#SVGID_5_)" d="M99.826,28.802l10.638,72.449c0.094-0.16,0.189-0.318,0.29-0.472l36.257-62.801
		c3.038-5.262,3.977-11.157,3.084-16.723c-0.02-0.114-0.038-0.229-0.058-0.344c-0.056-0.317-0.115-0.633-0.184-0.947
		c-0.013-0.063-0.027-0.127-0.041-0.19c-0.08-0.362-0.166-0.723-0.262-1.08c-0.002-0.004-0.003-0.009-0.004-0.013
		c-0.838-3.126-2.271-6.092-4.247-8.716c-0.041-0.054-0.083-0.106-0.125-0.161c-0.2-0.262-0.406-0.522-0.618-0.777
		c-0.08-0.096-0.163-0.19-0.244-0.285c-0.181-0.211-0.363-0.421-0.551-0.626c-0.106-0.117-0.216-0.23-0.326-0.345
		c-0.173-0.183-0.347-0.364-0.526-0.542c-0.117-0.117-0.238-0.23-0.358-0.345C142.37,6.711,142.188,6.538,142,6.37
		c-0.114-0.103-0.231-0.203-0.348-0.304c-0.207-0.178-0.413-0.354-0.626-0.527c-0.098-0.08-0.198-0.157-0.297-0.235
		c-0.243-0.192-0.49-0.38-0.742-0.564c-0.073-0.053-0.145-0.104-0.219-0.156c-0.289-0.207-0.583-0.409-0.885-0.604
		c-0.041-0.027-0.083-0.054-0.124-0.081c-0.337-0.217-0.681-0.428-1.033-0.631c-0.012-0.007-0.025-0.015-0.037-0.022
		c-2.649-1.526-5.458-2.522-8.303-3.021c-0.009-0.002-0.018-0.004-0.027-0.005c-0.383-0.066-0.767-0.123-1.15-0.172
		c-0.031-0.004-0.061-0.009-0.091-0.013c-0.358-0.044-0.718-0.078-1.076-0.106c-0.059-0.005-0.117-0.012-0.176-0.016
		c-0.33-0.024-0.658-0.039-0.987-0.05c-0.092-0.003-0.184-0.008-0.275-0.01c-0.3-0.007-0.599-0.005-0.898-0.002
		c-0.123,0.002-0.247,0.002-0.371,0.005c-0.274,0.008-0.549,0.022-0.822,0.039c-0.149,0.009-0.297,0.017-0.445,0.028
		c-0.26,0.02-0.52,0.047-0.78,0.075c-0.157,0.017-0.315,0.034-0.475,0.055c-0.263,0.033-0.526,0.071-0.789,0.113
		c-0.141,0.022-0.281,0.046-0.422,0.07c-0.287,0.05-0.573,0.105-0.858,0.166c-0.101,0.021-0.201,0.044-0.301,0.066
		c-0.322,0.072-0.642,0.149-0.959,0.232c-0.055,0.015-0.109,0.03-0.163,0.045c-0.356,0.097-0.711,0.2-1.063,0.312
		c-0.012,0.004-0.023,0.008-0.036,0.012c-1.536,0.493-3.027,1.131-4.449,1.91c-0.025,0.013-0.048,0.027-0.072,0.04
		c-0.322,0.178-0.64,0.362-0.953,0.553c-0.087,0.054-0.171,0.109-0.258,0.163c-0.247,0.155-0.493,0.312-0.735,0.476
		c-0.156,0.106-0.309,0.215-0.462,0.324c-0.168,0.119-0.336,0.236-0.5,0.36c-0.215,0.16-0.424,0.326-0.632,0.491
		c-0.101,0.081-0.203,0.159-0.302,0.242c-0.25,0.204-0.494,0.416-0.735,0.63c-0.057,0.051-0.115,0.099-0.172,0.151
		c-0.259,0.235-0.513,0.477-0.763,0.722c-0.039,0.038-0.078,0.075-0.117,0.113c-0.249,0.249-0.492,0.502-0.731,0.761
		c-0.04,0.044-0.081,0.086-0.12,0.13c-0.225,0.247-0.443,0.499-0.658,0.754c-0.055,0.065-0.111,0.13-0.166,0.197
		c-0.192,0.233-0.379,0.472-0.563,0.712c-0.075,0.099-0.151,0.198-0.226,0.297c-0.159,0.214-0.313,0.431-0.465,0.649
		c-0.096,0.138-0.192,0.277-0.285,0.417c-0.127,0.191-0.252,0.384-0.375,0.579c-0.11,0.176-0.219,0.354-0.325,0.532
		C100.297,17.069,98.988,22.837,99.826,28.802z"/>
	<linearGradient id="SVGID_6_" gradientUnits="userSpaceOnUse" x1="133.9775" y1="91.4658" x2="146.5184" y2="158.9157">
		<stop  offset="0" style="stop-color:#FF5E00"/>
		<stop  offset="1" style="stop-color:#FFB74F"/>
	</linearGradient>
	<path opacity="0.6" fill="url(#SVGID_6_)" d="M168.664,146.648l-10.643-72.475l-23.061,39.942
		c-0.158,0.332-0.326,0.661-0.513,0.985l-8.789,15.225l-4.899,8.486c-5.988,11.94-1.698,26.625,10.02,33.39
		c5.051,2.917,10.685,3.896,16.051,3.181c0.154-0.021,0.307-0.043,0.459-0.066c0.249-0.037,0.496-0.078,0.742-0.123
		c0.19-0.035,0.381-0.07,0.571-0.11c0.199-0.04,0.396-0.085,0.592-0.13c0.232-0.053,0.464-0.107,0.693-0.168
		c0.146-0.037,0.289-0.078,0.434-0.118c0.271-0.075,0.544-0.153,0.813-0.238c0.098-0.03,0.193-0.063,0.289-0.095
		c0.307-0.1,0.609-0.203,0.911-0.315c0.063-0.022,0.123-0.048,0.185-0.071c0.325-0.123,0.65-0.252,0.971-0.389
		c0.045-0.02,0.089-0.039,0.133-0.059c0.329-0.143,0.656-0.291,0.979-0.447c0.052-0.025,0.103-0.053,0.154-0.078
		c0.309-0.152,0.614-0.31,0.917-0.475c0.084-0.045,0.165-0.094,0.247-0.139c0.265-0.148,0.529-0.301,0.789-0.458
		c0.133-0.081,0.263-0.167,0.395-0.251c0.203-0.127,0.406-0.256,0.605-0.391c0.189-0.127,0.374-0.26,0.56-0.393
		c0.138-0.1,0.275-0.194,0.41-0.295c0.234-0.176,0.464-0.355,0.691-0.537c0.083-0.066,0.168-0.132,0.25-0.199
		c0.257-0.213,0.51-0.432,0.759-0.652c0.051-0.046,0.104-0.09,0.154-0.135c0.259-0.234,0.511-0.475,0.76-0.719
		c0.041-0.043,0.084-0.082,0.126-0.123c0.241-0.24,0.476-0.487,0.706-0.736c0.051-0.055,0.104-0.107,0.152-0.163
		c0.212-0.231,0.416-0.47,0.619-0.709c0.07-0.083,0.142-0.165,0.211-0.25c0.175-0.214,0.345-0.431,0.514-0.649
		c0.094-0.123,0.189-0.246,0.283-0.371c0.138-0.188,0.273-0.378,0.406-0.567c0.118-0.17,0.236-0.341,0.35-0.515
		c0.105-0.158,0.208-0.316,0.311-0.478c0.135-0.214,0.268-0.432,0.398-0.651C168.203,158.33,169.498,152.586,168.664,146.648z"/>
	<linearGradient id="SVGID_7_" gradientUnits="userSpaceOnUse" x1="232.0469" y1="3.04" x2="179.6799" y2="84.3868">
		<stop  offset="0.0666" style="stop-color:#B1E55E"/>
		<stop  offset="0.9657" style="stop-color:#D4DE00"/>
	</linearGradient>
	<path opacity="0.6" fill="url(#SVGID_7_)" d="M190.51,28.955l10.594,72.144l38.336-66.627c1.598-4.177,2.018-8.593,1.379-12.826
		c-0.04-0.265-0.085-0.528-0.131-0.791c-0.033-0.178-0.067-0.354-0.104-0.531c-0.043-0.21-0.09-0.42-0.137-0.628
		c-0.053-0.223-0.105-0.445-0.162-0.667c-0.039-0.152-0.082-0.302-0.123-0.453c-0.075-0.267-0.151-0.535-0.234-0.798
		c-0.032-0.1-0.064-0.198-0.098-0.296c-0.101-0.305-0.203-0.609-0.314-0.91c-0.022-0.059-0.045-0.117-0.068-0.176
		c-0.125-0.33-0.255-0.658-0.393-0.983c-0.016-0.037-0.033-0.073-0.05-0.109c-0.146-0.339-0.299-0.674-0.46-1.006
		c-0.018-0.037-0.037-0.073-0.055-0.109c-0.16-0.325-0.325-0.647-0.499-0.966c-0.034-0.062-0.069-0.121-0.104-0.182
		c-0.16-0.288-0.325-0.574-0.497-0.857c-0.063-0.104-0.131-0.207-0.196-0.311c-0.146-0.232-0.294-0.465-0.448-0.693
		c-0.104-0.155-0.215-0.307-0.323-0.46c-0.121-0.172-0.242-0.343-0.368-0.512c-0.146-0.198-0.3-0.39-0.453-0.583
		c-0.096-0.12-0.189-0.242-0.287-0.361c-0.182-0.219-0.368-0.434-0.557-0.647c-0.078-0.089-0.156-0.18-0.235-0.268
		c-0.2-0.221-0.406-0.435-0.612-0.648c-0.08-0.081-0.156-0.162-0.236-0.242c-0.203-0.204-0.412-0.401-0.622-0.597
		c-0.095-0.089-0.188-0.178-0.284-0.266c-0.192-0.175-0.391-0.344-0.588-0.513c-0.126-0.107-0.252-0.215-0.381-0.321
		c-0.17-0.14-0.345-0.275-0.519-0.411c-0.17-0.131-0.341-0.263-0.515-0.39c-0.141-0.104-0.283-0.205-0.425-0.305
		c-0.222-0.156-0.444-0.31-0.671-0.459c-0.106-0.07-0.214-0.139-0.321-0.208c-0.272-0.173-0.548-0.343-0.828-0.506
		c-0.076-0.044-0.151-0.089-0.229-0.133c-0.312-0.178-0.625-0.348-0.94-0.511c-0.059-0.031-0.117-0.062-0.176-0.091
		c-0.329-0.168-0.662-0.327-0.996-0.479c-0.053-0.023-0.103-0.048-0.154-0.071c-0.341-0.152-0.684-0.295-1.027-0.431
		c-0.049-0.019-0.097-0.04-0.146-0.059c-0.347-0.135-0.696-0.26-1.047-0.378c-0.047-0.017-0.096-0.034-0.143-0.05
		c-0.354-0.117-0.708-0.224-1.064-0.326c-0.046-0.013-0.092-0.028-0.137-0.04c-0.359-0.101-0.719-0.189-1.079-0.272
		c-0.046-0.011-0.089-0.023-0.135-0.033c-0.358-0.081-0.719-0.151-1.079-0.216c-0.048-0.009-0.097-0.019-0.146-0.028
		c-0.353-0.061-0.705-0.112-1.059-0.158c-0.059-0.007-0.117-0.017-0.177-0.024c-0.338-0.042-0.677-0.073-1.017-0.101
		c-0.077-0.006-0.151-0.015-0.229-0.02c-0.319-0.023-0.64-0.038-0.959-0.049c-0.099-0.003-0.196-0.009-0.296-0.011
		c-0.299-0.007-0.598-0.005-0.896-0.001c-0.121,0.001-0.242,0.001-0.365,0.005c-0.281,0.007-0.563,0.022-0.845,0.039
		c-0.137,0.008-0.274,0.016-0.413,0.027c-0.273,0.021-0.548,0.048-0.822,0.078c-0.14,0.016-0.279,0.031-0.421,0.049
		c-0.284,0.036-0.567,0.076-0.851,0.122c-0.115,0.018-0.231,0.038-0.347,0.058c-0.315,0.055-0.628,0.114-0.939,0.181
		c-0.069,0.015-0.138,0.03-0.205,0.044c-0.355,0.08-0.709,0.164-1.06,0.257c-0.015,0.004-0.028,0.008-0.043,0.012
		c-2.73,0.735-5.339,1.922-7.703,3.529c-0.043,0.029-0.086,0.06-0.128,0.089c-0.282,0.195-0.563,0.394-0.837,0.601
		c-0.103,0.077-0.202,0.158-0.305,0.236c-0.212,0.166-0.425,0.332-0.633,0.504c-0.143,0.118-0.282,0.24-0.422,0.362
		c-0.163,0.141-0.327,0.282-0.488,0.428c-0.16,0.146-0.316,0.298-0.475,0.449c-0.136,0.132-0.273,0.262-0.408,0.397
		c-0.158,0.159-0.313,0.323-0.467,0.487c-0.131,0.138-0.262,0.276-0.39,0.417c-0.142,0.157-0.279,0.318-0.416,0.478
		c-0.14,0.162-0.277,0.323-0.412,0.489c-0.116,0.142-0.229,0.287-0.342,0.431c-0.153,0.197-0.305,0.396-0.454,0.597
		c-0.087,0.119-0.172,0.24-0.257,0.361c-0.17,0.24-0.338,0.482-0.499,0.729c-0.061,0.091-0.119,0.183-0.178,0.275
		c-0.182,0.284-0.359,0.572-0.529,0.866C190.95,17.365,189.683,23.064,190.51,28.955z"/>
</g>
</svg>
