<?xml version="1.0" encoding="utf-8"?>
<!-- Generator: Adobe Illustrator 16.0.0, SVG Export Plug-In . SVG Version: 6.00 Build 0)  -->
<!DOCTYPE svg PUBLIC "-//W3C//DTD SVG 1.1//EN" "http://www.w3.org/Graphics/SVG/1.1/DTD/svg11.dtd">
<svg version="1.1" id="레이어_1" xmlns="http://www.w3.org/2000/svg" xmlns:xlink="http://www.w3.org/1999/xlink" x="0px"
	 y="0px" width="351.333px" height="101.886px" viewBox="0 0 351.333 101.886" enable-background="new 0 0 351.333 101.886"
	 xml:space="preserve">
<g>
	<path fill="#FF6700" d="M167.324,10.47c0.735,0,1.37,0.059,1.905,0.175c0.534,0.118,1.011,0.351,1.429,0.702
		c0.417,0.351,0.819,0.861,1.203,1.529c0.384,0.669,0.81,1.571,1.279,2.708l6.868,17.146l6.568-17.096
		c0.401-1.103,0.794-1.988,1.179-2.657c0.383-0.668,0.801-1.186,1.253-1.554c0.451-0.367,0.952-0.618,1.504-0.752
		c0.552-0.133,1.194-0.2,1.931-0.2h1.053c1.604,0,2.715,0.301,3.334,0.902c0.617,0.602,0.927,1.688,0.927,3.259V43.91
		c0,0.902-0.301,1.563-0.902,1.98c-0.602,0.418-1.321,0.626-2.155,0.626c-0.77,0-1.463-0.208-2.081-0.626
		c-0.618-0.417-0.927-1.078-0.927-1.98V16.085c-0.301,1.271-0.586,2.315-0.854,3.133c-0.268,0.82-0.535,1.58-0.802,2.281
		l-6.618,16.294c-0.435,1.07-0.895,1.78-1.378,2.131c-0.485,0.351-1.162,0.526-2.031,0.526c-1.036,0-1.813-0.192-2.331-0.577
		c-0.519-0.384-0.995-1.128-1.429-2.231L169.781,21.5c-0.268-0.668-0.535-1.42-0.802-2.256c-0.268-0.835-0.585-1.888-0.953-3.159
		V43.91c0,0.902-0.31,1.563-0.928,1.98c-0.619,0.418-1.329,0.626-2.13,0.626c-0.77,0-1.454-0.208-2.056-0.626
		c-0.602-0.417-0.902-1.078-0.902-1.98V14.631c0-1.571,0.309-2.657,0.927-3.259c0.618-0.602,1.73-0.902,3.334-0.902H167.324z"/>
	<path fill="#FFFFFF" d="M222.999,16.544c0.641,0,1.107,0.216,1.399,0.648c0.292,0.432,0.438,0.954,0.438,1.566
		c0,0.585-0.146,1.101-0.438,1.546c-0.292,0.446-0.759,0.668-1.399,0.668h-12.492v7.896h11.656c0.612,0,1.065,0.216,1.357,0.647
		c0.293,0.432,0.439,0.94,0.439,1.525s-0.146,1.093-0.439,1.525c-0.292,0.432-0.745,0.647-1.357,0.647h-11.656v8.606h12.784
		c0.641,0,1.107,0.223,1.399,0.668c0.293,0.446,0.439,0.961,0.439,1.546c0,0.613-0.146,1.135-0.439,1.567
		c-0.292,0.432-0.759,0.647-1.399,0.647h-14.539c-1.337,0-2.263-0.251-2.778-0.752c-0.516-0.501-0.772-1.406-0.772-2.716v-22.77
		c0-1.309,0.257-2.214,0.772-2.715c0.516-0.501,1.441-0.752,2.778-0.752H222.999z"/>
	<path fill="#FFFFFF" d="M241.046,16.544c2.174,0,4.074,0.258,5.703,0.773c1.63,0.516,3.002,1.337,4.115,2.465
		c1.113,1.128,1.949,2.583,2.507,4.366c0.558,1.783,0.836,3.941,0.836,6.476v1.546c0,2.535-0.278,4.693-0.836,6.476
		c-0.558,1.783-1.394,3.238-2.507,4.366c-1.113,1.128-2.485,1.95-4.115,2.465c-1.629,0.516-3.529,0.773-5.703,0.773h-6.893
		c-1.338,0-2.264-0.251-2.778-0.752c-0.517-0.501-0.772-1.406-0.772-2.716v-22.77c0-1.309,0.256-2.214,0.772-2.715
		c0.515-0.501,1.44-0.752,2.778-0.752H241.046z M235.907,41.737h4.43c1.531,0,2.833-0.167,3.906-0.501
		c1.071-0.334,1.949-0.891,2.631-1.671c0.683-0.78,1.178-1.803,1.484-3.071c0.306-1.267,0.459-2.848,0.459-4.742v-0.71
		c0-1.866-0.153-3.439-0.459-4.721c-0.307-1.281-0.802-2.312-1.484-3.091c-0.682-0.78-1.56-1.337-2.631-1.671
		c-1.073-0.334-2.375-0.501-3.906-0.501h-4.43V41.737z"/>
	<path fill="#FFFFFF" d="M262.521,16.294c0.725,0,1.352,0.182,1.881,0.543c0.528,0.362,0.793,0.947,0.793,1.755v25.61
		c0,0.808-0.265,1.393-0.793,1.755c-0.529,0.362-1.156,0.543-1.881,0.543s-1.352-0.181-1.88-0.543
		c-0.529-0.362-0.794-0.947-0.794-1.755v-25.61c0-0.808,0.265-1.393,0.794-1.755C261.169,16.476,261.796,16.294,262.521,16.294z"/>
	<path fill="#FFFFFF" d="M282.95,16.294c0.725,0,1.352,0.167,1.881,0.501c0.528,0.334,0.988,0.989,1.379,1.963l9.399,24.232
		c0.306,0.808,0.306,1.504,0,2.089c-0.307,0.585-0.808,0.989-1.504,1.211s-1.386,0.251-2.067,0.083
		c-0.684-0.167-1.178-0.696-1.484-1.587l-2.423-6.685h-10.528l-2.465,6.852c-0.307,0.808-0.773,1.289-1.399,1.441
		s-1.274,0.118-1.942-0.104c-0.669-0.223-1.156-0.599-1.463-1.128c-0.307-0.529-0.307-1.184,0-1.963l9.4-24.441
		c0.361-0.975,0.814-1.629,1.357-1.963C281.634,16.461,282.254,16.294,282.95,16.294z M282.867,22.979
		c-0.224,0.835-0.438,1.581-0.647,2.235c-0.209,0.655-0.48,1.456-0.814,2.402l-2.215,6.058h7.354l-2.173-6.058
		c-0.362-0.975-0.647-1.811-0.856-2.507C283.306,24.414,283.089,23.703,282.867,22.979z"/>
	<path fill="#87DB0F" d="M167.324,59.514c0.735,0,1.37,0.059,1.905,0.175c0.534,0.118,1.011,0.351,1.429,0.702
		c0.417,0.351,0.819,0.861,1.203,1.529s0.81,1.57,1.279,2.707l6.868,17.146l6.568-17.097c0.401-1.103,0.794-1.988,1.179-2.657
		c0.383-0.668,0.801-1.186,1.253-1.555c0.451-0.367,0.952-0.617,1.504-0.752c0.552-0.133,1.194-0.199,1.931-0.199h1.053
		c1.604,0,2.715,0.301,3.334,0.902c0.617,0.602,0.927,1.688,0.927,3.258v29.279c0,0.902-0.301,1.563-0.902,1.98
		s-1.321,0.626-2.155,0.626c-0.77,0-1.463-0.208-2.081-0.626s-0.927-1.078-0.927-1.98V65.128c-0.301,1.271-0.586,2.315-0.854,3.134
		c-0.268,0.819-0.535,1.579-0.802,2.281l-6.618,16.293c-0.435,1.07-0.895,1.78-1.378,2.131c-0.485,0.352-1.162,0.527-2.031,0.527
		c-1.036,0-1.813-0.192-2.331-0.577c-0.519-0.384-0.995-1.128-1.429-2.231l-6.468-16.143c-0.268-0.668-0.535-1.42-0.802-2.256
		c-0.268-0.836-0.585-1.889-0.953-3.159v27.825c0,0.902-0.31,1.563-0.928,1.98c-0.619,0.418-1.329,0.626-2.13,0.626
		c-0.77,0-1.454-0.208-2.056-0.626s-0.902-1.078-0.902-1.98V63.674c0-1.57,0.309-2.656,0.927-3.258
		c0.618-0.602,1.73-0.902,3.334-0.902H167.324z"/>
	<path fill="#FFFFFF" d="M216.857,65.128c2.032,0,3.843,0.278,5.431,0.836s2.925,1.421,4.012,2.59
		c1.086,1.17,1.914,2.667,2.485,4.491c0.57,1.824,0.856,4.004,0.856,6.539v1.713c0,2.534-0.286,4.714-0.856,6.538
		c-0.571,1.824-1.399,3.321-2.485,4.491c-1.087,1.17-2.424,2.033-4.012,2.59s-3.398,0.836-5.431,0.836
		c-2.034,0-3.844-0.279-5.432-0.836c-1.587-0.557-2.925-1.42-4.011-2.59s-1.915-2.667-2.486-4.491
		c-0.57-1.824-0.855-4.004-0.855-6.538v-1.713c0-2.535,0.285-4.715,0.855-6.539c0.571-1.824,1.4-3.321,2.486-4.491
		c1.086-1.169,2.424-2.032,4.011-2.59C213.014,65.406,214.823,65.128,216.857,65.128z M216.857,70.016
		c-1.226,0-2.298,0.168-3.218,0.502c-0.918,0.334-1.691,0.885-2.318,1.65s-1.094,1.789-1.399,3.07
		c-0.307,1.281-0.46,2.869-0.46,4.764v0.877c0,1.895,0.153,3.482,0.46,4.763c0.306,1.281,0.772,2.305,1.399,3.071
		c0.627,0.766,1.4,1.315,2.318,1.649c0.92,0.335,1.992,0.501,3.218,0.501s2.298-0.166,3.217-0.501
		c0.919-0.334,1.692-0.884,2.319-1.649c0.626-0.767,1.092-1.79,1.398-3.071c0.307-1.28,0.46-2.868,0.46-4.763v-0.877
		c0-1.895-0.153-3.482-0.46-4.764s-0.772-2.305-1.398-3.07c-0.627-0.766-1.4-1.316-2.319-1.65S218.083,70.016,216.857,70.016z"/>
	<path fill="#FFFFFF" d="M239.71,65.504c0.611,0,1.142,0.049,1.588,0.146c0.444,0.098,0.842,0.293,1.189,0.585
		c0.349,0.292,0.683,0.718,1.004,1.274c0.319,0.557,0.674,1.309,1.064,2.256l5.725,14.288l5.473-14.247
		c0.334-0.918,0.661-1.656,0.981-2.214c0.319-0.557,0.669-0.988,1.044-1.295c0.377-0.306,0.795-0.515,1.254-0.626
		s0.996-0.168,1.608-0.168h0.878c1.336,0,2.262,0.251,2.777,0.752c0.516,0.502,0.773,1.407,0.773,2.716v24.399
		c0,0.752-0.25,1.302-0.752,1.65c-0.502,0.348-1.101,0.521-1.797,0.521c-0.641,0-1.219-0.174-1.733-0.521
		c-0.516-0.349-0.772-0.898-0.772-1.65V70.184c-0.251,1.059-0.488,1.929-0.711,2.611c-0.223,0.682-0.445,1.315-0.668,1.9
		l-5.516,13.578c-0.361,0.892-0.745,1.483-1.148,1.775c-0.404,0.293-0.969,0.439-1.691,0.439c-0.864,0-1.512-0.16-1.943-0.48
		s-0.829-0.94-1.191-1.859l-5.389-13.453c-0.223-0.557-0.445-1.184-0.668-1.88c-0.224-0.696-0.488-1.573-0.795-2.632v23.188
		c0,0.752-0.258,1.302-0.772,1.65c-0.516,0.348-1.106,0.521-1.775,0.521c-0.642,0-1.212-0.174-1.713-0.521
		c-0.501-0.349-0.752-0.898-0.752-1.65V68.972c0-1.309,0.257-2.214,0.772-2.716c0.516-0.501,1.441-0.752,2.778-0.752H239.71z"/>
	<path fill="#FFFFFF" d="M289.636,65.588c0.641,0,1.107,0.216,1.399,0.647c0.292,0.433,0.438,0.954,0.438,1.566
		c0,0.585-0.146,1.101-0.438,1.546s-0.759,0.668-1.399,0.668h-12.492v7.896H288.8c0.612,0,1.065,0.217,1.357,0.648
		c0.293,0.432,0.439,0.939,0.439,1.524s-0.146,1.093-0.439,1.524c-0.292,0.433-0.745,0.648-1.357,0.648h-11.656v8.605h12.784
		c0.641,0,1.107,0.224,1.399,0.669c0.293,0.446,0.439,0.961,0.439,1.546c0,0.613-0.146,1.135-0.439,1.566
		c-0.292,0.433-0.759,0.648-1.399,0.648h-14.539c-1.337,0-2.263-0.252-2.778-0.752c-0.516-0.502-0.772-1.406-0.772-2.717v-22.77
		c0-1.309,0.257-2.214,0.772-2.715c0.516-0.502,1.441-0.752,2.778-0.752H289.636z"/>
	<path fill="#FFFFFF" d="M318.128,65.337c0.641,0,1.211,0.175,1.713,0.522c0.502,0.349,0.752,0.898,0.752,1.65v24.398
		c0,1.31-0.258,2.215-0.773,2.716s-1.441,0.752-2.777,0.752c-0.502,0-0.947-0.042-1.338-0.126c-0.39-0.083-0.766-0.271-1.127-0.563
		c-0.363-0.292-0.738-0.717-1.129-1.274c-0.39-0.557-0.85-1.309-1.379-2.256l-7.896-14.121c-0.418-0.752-0.794-1.504-1.128-2.256
		s-0.627-1.602-0.877-2.549v21.141c0,0.752-0.251,1.302-0.752,1.65c-0.502,0.348-1.073,0.521-1.713,0.521
		c-0.642,0-1.213-0.174-1.713-0.521c-0.502-0.349-0.752-0.898-0.752-1.65V68.972c0-1.309,0.256-2.214,0.772-2.716
		c0.515-0.501,1.44-0.752,2.778-0.752c0.501,0,0.946,0.042,1.336,0.125c0.391,0.084,0.767,0.271,1.129,0.564
		c0.361,0.293,0.737,0.717,1.128,1.274c0.39,0.558,0.849,1.31,1.378,2.256l7.896,14.121c0.418,0.753,0.795,1.505,1.129,2.257
		s0.627,1.602,0.877,2.548V67.51c0-0.752,0.25-1.302,0.752-1.65C316.917,65.512,317.487,65.337,318.128,65.337z"/>
	<path fill="#FFFFFF" d="M345.785,65.588c0.64,0,1.114,0.223,1.421,0.668c0.306,0.446,0.459,0.976,0.459,1.588
		c0,0.613-0.153,1.143-0.459,1.588c-0.307,0.445-0.781,0.668-1.421,0.668h-7.187v23.146c0,0.808-0.265,1.394-0.793,1.755
		c-0.529,0.362-1.156,0.543-1.881,0.543s-1.351-0.181-1.879-0.543c-0.53-0.361-0.795-0.947-0.795-1.755V70.1h-7.227
		c-0.642,0-1.115-0.223-1.422-0.668s-0.459-0.975-0.459-1.588c0-0.612,0.152-1.142,0.459-1.588c0.307-0.445,0.78-0.668,1.422-0.668
		H345.785z"/>
</g>
<g>
	<linearGradient id="SVGID_1_" gradientUnits="userSpaceOnUse" x1="60.2285" y1="28.5732" x2="66.5356" y2="68.7095">
		<stop  offset="0" style="stop-color:#FFC953"/>
		<stop  offset="1" style="stop-color:#FFC754"/>
	</linearGradient>
	<path fill="url(#SVGID_1_)" d="M70.936,24.206L50.49,59.618c2.243-3.456,6.825-4.585,10.435-2.502
		c3.546,2.048,4.873,6.46,3.143,10.095l13.004-22.523l-4.353-29.646c-0.013-0.09-0.03-0.177-0.044-0.266
		C73.178,17.915,72.648,21.239,70.936,24.206z"/>
	<linearGradient id="SVGID_2_" gradientUnits="userSpaceOnUse" x1="114.9443" y1="15.2856" x2="63.0545" y2="90.1102">
		<stop  offset="0" style="stop-color:#D4DE00"/>
		<stop  offset="1" style="stop-color:#FF9A00"/>
	</linearGradient>
	<path fill="url(#SVGID_2_)" d="M123.831,14.997c-0.022-0.149-0.048-0.298-0.074-0.446c-0.018-0.1-0.037-0.2-0.058-0.3
		c-0.024-0.119-0.051-0.237-0.078-0.354c-0.029-0.126-0.059-0.251-0.091-0.376c-0.021-0.085-0.046-0.17-0.069-0.255
		c-0.042-0.15-0.085-0.301-0.132-0.45c-0.018-0.056-0.036-0.111-0.055-0.167c-0.057-0.172-0.115-0.344-0.178-0.513
		c-0.012-0.033-0.025-0.066-0.038-0.099c-0.071-0.186-0.145-0.371-0.222-0.554c-0.009-0.021-0.019-0.041-0.028-0.062
		c-0.082-0.191-0.168-0.38-0.259-0.567c-0.01-0.021-0.021-0.041-0.031-0.062c-0.09-0.183-0.184-0.365-0.281-0.545
		c-0.02-0.035-0.039-0.068-0.059-0.103c-0.09-0.163-0.183-0.324-0.28-0.483c-0.036-0.059-0.074-0.117-0.111-0.175
		c-0.082-0.131-0.166-0.262-0.252-0.391c-0.059-0.087-0.121-0.173-0.183-0.259c-0.068-0.097-0.137-0.194-0.208-0.289
		c-0.083-0.112-0.169-0.22-0.255-0.329c-0.054-0.067-0.107-0.137-0.162-0.204c-0.103-0.124-0.208-0.245-0.314-0.365
		c-0.045-0.05-0.088-0.101-0.133-0.151c-0.113-0.125-0.229-0.246-0.346-0.366c-0.045-0.045-0.088-0.091-0.133-0.137
		c-0.115-0.115-0.232-0.226-0.351-0.336c-0.053-0.05-0.105-0.1-0.16-0.15c-0.108-0.099-0.22-0.194-0.332-0.289
		c-0.071-0.061-0.142-0.122-0.215-0.181c-0.096-0.079-0.194-0.155-0.292-0.232c-0.096-0.074-0.192-0.148-0.291-0.22
		c-0.079-0.059-0.16-0.115-0.24-0.172c-0.125-0.088-0.25-0.175-0.378-0.259c-0.06-0.04-0.12-0.079-0.181-0.117
		c-0.154-0.097-0.309-0.193-0.467-0.285c-0.043-0.025-0.085-0.051-0.129-0.075c-0.175-0.101-0.352-0.196-0.53-0.289
		c-0.032-0.017-0.065-0.035-0.099-0.051c-0.186-0.095-0.374-0.184-0.563-0.27c-0.029-0.013-0.057-0.027-0.086-0.04
		c-0.192-0.085-0.385-0.166-0.579-0.243c-0.027-0.011-0.055-0.022-0.083-0.033c-0.196-0.076-0.393-0.146-0.591-0.213
		c-0.026-0.009-0.054-0.019-0.08-0.028c-0.199-0.066-0.399-0.126-0.601-0.184c-0.025-0.007-0.052-0.016-0.077-0.022
		c-0.202-0.057-0.405-0.107-0.608-0.153c-0.025-0.006-0.05-0.013-0.076-0.019c-0.202-0.045-0.405-0.085-0.609-0.122
		c-0.026-0.005-0.054-0.01-0.082-0.016c-0.198-0.034-0.397-0.063-0.597-0.089c-0.033-0.004-0.066-0.01-0.1-0.014
		c-0.191-0.023-0.382-0.041-0.573-0.057c-0.043-0.003-0.086-0.008-0.129-0.011c-0.18-0.013-0.36-0.021-0.541-0.027
		c-0.055-0.002-0.11-0.005-0.167-0.006c-0.168-0.004-0.337-0.003-0.505-0.001c-0.069,0.001-0.137,0.001-0.206,0.003
		c-0.159,0.004-0.317,0.012-0.477,0.021c-0.077,0.005-0.155,0.009-0.232,0.016c-0.155,0.012-0.31,0.027-0.464,0.043
		c-0.079,0.009-0.158,0.018-0.237,0.028c-0.16,0.02-0.32,0.043-0.479,0.069c-0.065,0.01-0.131,0.021-0.196,0.032
		c-0.177,0.031-0.354,0.064-0.53,0.102c-0.039,0.008-0.077,0.017-0.115,0.025c-0.201,0.045-0.4,0.092-0.598,0.145
		c-0.008,0.002-0.016,0.004-0.024,0.007c-1.54,0.415-3.011,1.083-4.344,1.99c-0.024,0.016-0.048,0.033-0.072,0.05
		c-0.159,0.11-0.317,0.222-0.472,0.339c-0.058,0.043-0.114,0.089-0.171,0.133c-0.12,0.093-0.24,0.187-0.357,0.284
		c-0.081,0.067-0.159,0.136-0.238,0.205c-0.092,0.08-0.185,0.159-0.275,0.241c-0.091,0.083-0.179,0.168-0.268,0.253
		c-0.076,0.075-0.154,0.148-0.229,0.224c-0.09,0.09-0.177,0.182-0.264,0.274c-0.073,0.078-0.147,0.155-0.219,0.235
		c-0.08,0.088-0.158,0.179-0.234,0.269c-0.079,0.091-0.157,0.182-0.232,0.275c-0.066,0.08-0.129,0.162-0.193,0.243
		c-0.086,0.111-0.172,0.223-0.256,0.336c-0.049,0.067-0.097,0.135-0.145,0.203c-0.096,0.136-0.19,0.272-0.282,0.412
		c-0.034,0.051-0.067,0.103-0.1,0.155c-0.102,0.16-0.202,0.322-0.299,0.488c-1.258,2.15-1.965,4.638-1.959,7.249
		c-0.036-2.668,0.676-5.214,1.959-7.408c-0.012,0.021-0.026,0.042-0.038,0.063L77.144,44.615L64.141,67.139
		c-0.089,0.186-0.184,0.372-0.29,0.555l-4.956,8.585l-2.763,4.785c-3.376,6.733-0.958,15.013,5.65,18.827
		c2.848,1.645,6.025,2.197,9.051,1.794c0.086-0.012,0.173-0.024,0.259-0.037c0.14-0.021,0.279-0.044,0.418-0.069
		c0.107-0.02,0.215-0.04,0.322-0.063c0.112-0.023,0.223-0.047,0.334-0.072c0.131-0.031,0.262-0.062,0.391-0.096
		c0.083-0.021,0.163-0.043,0.244-0.066c0.153-0.043,0.307-0.087,0.459-0.135c0.055-0.018,0.108-0.035,0.163-0.053
		c0.173-0.057,0.344-0.115,0.514-0.178c0.035-0.014,0.069-0.027,0.104-0.041c0.184-0.069,0.367-0.142,0.548-0.219
		c0.025-0.011,0.05-0.022,0.075-0.033c0.185-0.08,0.369-0.164,0.551-0.252c0.029-0.015,0.058-0.029,0.087-0.045
		c0.174-0.085,0.346-0.174,0.517-0.268c0.047-0.024,0.093-0.053,0.139-0.078c0.149-0.084,0.298-0.169,0.445-0.258
		c0.075-0.046,0.148-0.094,0.223-0.141c0.114-0.072,0.229-0.145,0.341-0.221c0.106-0.072,0.211-0.146,0.315-0.223
		c0.077-0.055,0.155-0.109,0.231-0.166c0.132-0.098,0.262-0.2,0.39-0.303c0.047-0.037,0.095-0.074,0.141-0.111
		c0.146-0.12,0.288-0.244,0.428-0.369c0.029-0.025,0.058-0.05,0.086-0.076c0.146-0.131,0.289-0.268,0.429-0.404
		c0.023-0.023,0.047-0.047,0.071-0.07c0.136-0.135,0.268-0.273,0.398-0.414c0.028-0.031,0.058-0.061,0.085-0.092
		c0.12-0.131,0.235-0.266,0.349-0.4c0.04-0.047,0.08-0.094,0.119-0.141c0.099-0.121,0.194-0.242,0.29-0.366
		c0.053-0.069,0.107-0.14,0.16-0.21c0.078-0.105,0.154-0.213,0.229-0.319c0.067-0.096,0.133-0.192,0.198-0.29
		c0.059-0.09,0.117-0.179,0.175-0.27c0.076-0.121,0.151-0.243,0.224-0.367c0.025-0.043,0.052-0.083,0.077-0.125l5.913-10.242
		c0.136-0.336,0.295-0.668,0.481-0.991l13.66-23.739l0.019,0.127l21.617-37.57C123.955,19.874,124.191,17.383,123.831,14.997z"/>
	<linearGradient id="SVGID_3_" gradientUnits="userSpaceOnUse" x1="115.3677" y1="69.6494" x2="121.9615" y2="107.7789">
		<stop  offset="0.0666" style="stop-color:#B1E55E"/>
		<stop  offset="0.9657" style="stop-color:#79CE00"/>
	</linearGradient>
	<path fill="url(#SVGID_3_)" d="M103.736,89.545c1.103,7.84,8.351,13.302,16.19,12.199c7.839-1.102,13.302-8.35,12.2-16.189
		l-6.028-41.052l-23.084,40.121L103.736,89.545z"/>
	<radialGradient id="SVGID_4_" cx="10.0947" cy="88.1074" r="66.6354" gradientUnits="userSpaceOnUse">
		<stop  offset="0" style="stop-color:#FFB300"/>
		<stop  offset="1" style="stop-color:#FF5A00"/>
	</radialGradient>
	<path fill="url(#SVGID_4_)" d="M72.675,14.776c-0.011-0.064-0.021-0.129-0.033-0.194c-0.032-0.179-0.065-0.356-0.103-0.534
		c-0.007-0.036-0.016-0.071-0.023-0.107c-0.045-0.204-0.094-0.408-0.147-0.609c-0.001-0.002-0.002-0.005-0.002-0.008
		c-0.473-1.763-1.281-3.435-2.395-4.915c-0.023-0.03-0.047-0.06-0.071-0.091c-0.113-0.147-0.229-0.294-0.349-0.438
		c-0.045-0.054-0.092-0.107-0.138-0.161c-0.102-0.12-0.205-0.237-0.311-0.354c-0.061-0.066-0.122-0.13-0.184-0.194
		c-0.097-0.103-0.195-0.206-0.296-0.306c-0.066-0.066-0.135-0.13-0.202-0.194c-0.103-0.098-0.206-0.195-0.312-0.29
		c-0.064-0.058-0.131-0.114-0.196-0.171c-0.116-0.1-0.233-0.2-0.353-0.297c-0.055-0.044-0.112-0.088-0.167-0.132
		c-0.137-0.108-0.276-0.214-0.418-0.318c-0.041-0.03-0.082-0.059-0.124-0.088c-0.163-0.117-0.329-0.231-0.499-0.341
		c-0.023-0.015-0.046-0.03-0.07-0.045c-0.19-0.123-0.384-0.242-0.583-0.356c-0.006-0.004-0.014-0.009-0.021-0.013
		c-1.494-0.86-3.078-1.422-4.682-1.703c-0.005-0.001-0.01-0.002-0.016-0.003c-0.216-0.038-0.432-0.069-0.648-0.097
		c-0.018-0.002-0.034-0.005-0.051-0.007c-0.202-0.025-0.405-0.044-0.607-0.06c-0.033-0.003-0.066-0.007-0.099-0.009
		c-0.186-0.014-0.372-0.022-0.557-0.028c-0.052-0.001-0.104-0.004-0.155-0.005c-0.169-0.004-0.338-0.003-0.506-0.001
		c-0.069,0.001-0.139,0.001-0.209,0.003c-0.154,0.004-0.31,0.012-0.464,0.021c-0.083,0.005-0.167,0.01-0.25,0.016
		c-0.147,0.011-0.293,0.026-0.44,0.042c-0.088,0.01-0.178,0.019-0.268,0.031c-0.148,0.018-0.296,0.04-0.445,0.063
		c-0.08,0.012-0.159,0.026-0.238,0.039c-0.162,0.029-0.323,0.06-0.484,0.094c-0.057,0.012-0.113,0.024-0.169,0.037
		c-0.181,0.041-0.362,0.084-0.541,0.131c-0.031,0.008-0.062,0.017-0.092,0.025c-0.201,0.055-0.401,0.112-0.6,0.176
		c-0.006,0.002-0.013,0.004-0.02,0.006c-0.866,0.278-1.707,0.638-2.509,1.077c-0.014,0.007-0.027,0.015-0.041,0.022
		c-0.181,0.101-0.36,0.205-0.537,0.312c-0.049,0.03-0.097,0.062-0.146,0.092c-0.14,0.087-0.278,0.176-0.415,0.269
		c-0.088,0.06-0.174,0.122-0.26,0.183c-0.095,0.067-0.189,0.133-0.282,0.203c-0.121,0.09-0.239,0.184-0.357,0.277
		c-0.056,0.045-0.114,0.09-0.17,0.136c-0.141,0.115-0.278,0.235-0.414,0.355c-0.032,0.029-0.065,0.056-0.097,0.085
		c-0.146,0.133-0.29,0.269-0.43,0.407c-0.022,0.021-0.044,0.042-0.066,0.064c-0.141,0.14-0.277,0.283-0.413,0.429
		c-0.022,0.025-0.045,0.049-0.068,0.073c-0.127,0.139-0.25,0.281-0.371,0.425c-0.031,0.037-0.063,0.073-0.093,0.111
		c-0.109,0.132-0.214,0.266-0.317,0.401c-0.042,0.056-0.086,0.111-0.127,0.167c-0.09,0.121-0.177,0.243-0.263,0.366
		c-0.054,0.078-0.107,0.156-0.16,0.235c-0.072,0.108-0.143,0.217-0.211,0.327c-0.063,0.099-0.124,0.2-0.184,0.3
		c-0.371,0.622-0.692,1.272-0.966,1.947L5.562,80.383c-3.958,6.855-1.609,15.623,5.247,19.582c6.73,3.885,15.297,1.689,19.354-4.877
		L50.438,59.97c0.017-0.029,0.035-0.058,0.053-0.085l-0.032-0.216c0.01-0.017,0.021-0.034,0.032-0.051l20.445-35.412
		C72.648,21.239,73.178,17.915,72.675,14.776z"/>
	<linearGradient id="SVGID_5_" gradientUnits="userSpaceOnUse" x1="64.584" y1="7.1416" x2="41.0757" y2="46.9911">
		<stop  offset="0" style="stop-color:#FF5E00"/>
		<stop  offset="1" style="stop-color:#FFB74F"/>
	</linearGradient>
	<path opacity="0.6" fill="url(#SVGID_5_)" d="M44.329,19.032l5.999,40.853c0.053-0.091,0.106-0.18,0.163-0.267l20.445-35.412
		c1.712-2.967,2.242-6.292,1.739-9.43c-0.011-0.064-0.021-0.129-0.033-0.194c-0.032-0.179-0.065-0.356-0.103-0.534
		c-0.007-0.036-0.016-0.071-0.023-0.107c-0.045-0.204-0.094-0.408-0.147-0.609c-0.001-0.002-0.002-0.005-0.002-0.008
		c-0.473-1.763-1.281-3.435-2.395-4.915c-0.023-0.03-0.047-0.06-0.071-0.091c-0.113-0.147-0.229-0.294-0.349-0.438
		c-0.045-0.054-0.092-0.107-0.138-0.161c-0.102-0.12-0.205-0.237-0.311-0.354c-0.061-0.066-0.122-0.13-0.184-0.194
		c-0.097-0.103-0.195-0.206-0.296-0.306c-0.066-0.066-0.135-0.13-0.202-0.194c-0.103-0.098-0.206-0.195-0.312-0.29
		c-0.064-0.058-0.131-0.114-0.196-0.171c-0.116-0.1-0.233-0.2-0.353-0.297c-0.055-0.044-0.112-0.088-0.167-0.132
		c-0.137-0.108-0.276-0.214-0.418-0.318c-0.041-0.03-0.082-0.059-0.124-0.088c-0.163-0.117-0.329-0.231-0.499-0.341
		c-0.023-0.015-0.046-0.03-0.07-0.045c-0.19-0.123-0.384-0.242-0.583-0.356c-0.006-0.004-0.014-0.009-0.021-0.013
		c-1.494-0.86-3.078-1.422-4.682-1.703c-0.005-0.001-0.01-0.002-0.016-0.003c-0.216-0.038-0.432-0.069-0.648-0.097
		c-0.018-0.002-0.034-0.005-0.051-0.007c-0.202-0.025-0.405-0.044-0.607-0.06c-0.033-0.003-0.066-0.007-0.099-0.009
		c-0.186-0.014-0.372-0.022-0.557-0.028c-0.052-0.001-0.104-0.004-0.155-0.005c-0.169-0.004-0.338-0.003-0.506-0.001
		c-0.069,0.001-0.139,0.001-0.209,0.003c-0.154,0.004-0.31,0.012-0.464,0.021c-0.083,0.005-0.167,0.01-0.25,0.016
		c-0.147,0.011-0.293,0.026-0.44,0.042c-0.088,0.01-0.178,0.019-0.268,0.031c-0.148,0.018-0.296,0.04-0.445,0.063
		c-0.08,0.012-0.159,0.026-0.238,0.039c-0.162,0.029-0.323,0.06-0.484,0.094c-0.057,0.012-0.113,0.024-0.169,0.037
		c-0.181,0.041-0.362,0.084-0.541,0.131c-0.031,0.008-0.062,0.017-0.092,0.025c-0.201,0.055-0.401,0.112-0.6,0.176
		c-0.006,0.002-0.013,0.004-0.02,0.006c-0.866,0.278-1.707,0.638-2.509,1.077c-0.014,0.007-0.027,0.015-0.041,0.022
		c-0.181,0.101-0.36,0.205-0.537,0.312c-0.049,0.03-0.097,0.062-0.146,0.092c-0.14,0.087-0.278,0.176-0.415,0.269
		c-0.088,0.06-0.174,0.122-0.26,0.183c-0.095,0.067-0.189,0.133-0.282,0.203c-0.122,0.09-0.239,0.184-0.357,0.277
		c-0.057,0.045-0.115,0.09-0.17,0.136c-0.141,0.115-0.278,0.235-0.414,0.355c-0.032,0.029-0.065,0.056-0.097,0.085
		c-0.146,0.133-0.29,0.269-0.43,0.407c-0.021,0.021-0.044,0.042-0.065,0.064c-0.141,0.14-0.277,0.283-0.413,0.429
		c-0.022,0.025-0.045,0.049-0.068,0.073c-0.127,0.139-0.25,0.281-0.371,0.425c-0.031,0.037-0.063,0.073-0.093,0.111
		c-0.109,0.132-0.214,0.266-0.318,0.401c-0.042,0.056-0.085,0.111-0.127,0.167c-0.09,0.121-0.177,0.243-0.263,0.366
		c-0.054,0.078-0.108,0.156-0.161,0.235c-0.072,0.108-0.142,0.217-0.211,0.327c-0.062,0.099-0.123,0.2-0.183,0.3
		C44.594,12.416,43.856,15.668,44.329,19.032z"/>
	<linearGradient id="SVGID_6_" gradientUnits="userSpaceOnUse" x1="63.5859" y1="54.3672" x2="70.6574" y2="92.4003">
		<stop  offset="0" style="stop-color:#FF5E00"/>
		<stop  offset="1" style="stop-color:#FFB74F"/>
	</linearGradient>
	<path opacity="0.6" fill="url(#SVGID_6_)" d="M83.145,85.482l-6.001-40.867L64.141,67.139c-0.089,0.186-0.184,0.372-0.29,0.555
		l-4.956,8.585l-2.763,4.785c-3.376,6.733-0.958,15.013,5.65,18.827c2.848,1.645,6.025,2.197,9.051,1.794
		c0.086-0.012,0.173-0.024,0.259-0.037c0.14-0.021,0.279-0.044,0.418-0.069c0.107-0.02,0.215-0.04,0.322-0.063
		c0.112-0.023,0.223-0.047,0.334-0.072c0.131-0.031,0.262-0.062,0.391-0.096c0.083-0.021,0.163-0.043,0.244-0.066
		c0.153-0.043,0.307-0.087,0.459-0.135c0.055-0.018,0.108-0.035,0.163-0.053c0.173-0.057,0.344-0.115,0.514-0.178
		c0.035-0.014,0.069-0.027,0.104-0.041c0.184-0.069,0.367-0.142,0.548-0.219c0.025-0.011,0.05-0.022,0.075-0.033
		c0.185-0.08,0.369-0.164,0.551-0.252c0.029-0.015,0.058-0.029,0.087-0.045c0.174-0.085,0.346-0.174,0.517-0.268
		c0.047-0.024,0.093-0.053,0.139-0.078c0.149-0.084,0.298-0.169,0.445-0.258c0.075-0.046,0.148-0.094,0.223-0.141
		c0.114-0.072,0.229-0.145,0.341-0.221c0.106-0.072,0.211-0.146,0.315-0.223c0.077-0.055,0.155-0.109,0.231-0.166
		c0.132-0.098,0.262-0.2,0.39-0.303c0.047-0.037,0.095-0.074,0.141-0.111c0.146-0.12,0.288-0.244,0.428-0.369
		c0.029-0.025,0.058-0.05,0.086-0.076c0.146-0.131,0.289-0.268,0.429-0.404c0.023-0.023,0.047-0.047,0.071-0.07
		c0.136-0.135,0.268-0.273,0.398-0.414c0.028-0.031,0.058-0.061,0.085-0.092c0.12-0.131,0.235-0.266,0.349-0.4
		c0.04-0.047,0.08-0.094,0.119-0.141c0.099-0.121,0.194-0.242,0.29-0.366c0.053-0.069,0.107-0.14,0.16-0.21
		c0.078-0.105,0.154-0.213,0.229-0.319c0.067-0.096,0.133-0.192,0.198-0.29c0.059-0.09,0.117-0.179,0.175-0.27
		c0.076-0.121,0.151-0.243,0.224-0.367C82.885,92.07,83.615,88.83,83.145,85.482z"/>
	<linearGradient id="SVGID_7_" gradientUnits="userSpaceOnUse" x1="118.8848" y1="4.5049" x2="89.3555" y2="50.3756">
		<stop  offset="0.0666" style="stop-color:#B1E55E"/>
		<stop  offset="0.9657" style="stop-color:#D4DE00"/>
	</linearGradient>
	<path opacity="0.6" fill="url(#SVGID_7_)" d="M95.463,19.118l5.974,40.681l21.617-37.57c0.901-2.355,1.137-4.845,0.777-7.232
		c-0.022-0.149-0.048-0.298-0.074-0.446c-0.018-0.1-0.037-0.2-0.058-0.3c-0.024-0.119-0.051-0.237-0.078-0.354
		c-0.029-0.126-0.059-0.251-0.091-0.376c-0.021-0.085-0.046-0.17-0.069-0.255c-0.042-0.15-0.085-0.301-0.132-0.45
		c-0.018-0.056-0.036-0.111-0.055-0.167c-0.057-0.172-0.115-0.344-0.178-0.513c-0.012-0.033-0.025-0.066-0.038-0.099
		c-0.071-0.186-0.145-0.371-0.222-0.554c-0.009-0.021-0.019-0.041-0.028-0.062c-0.082-0.191-0.168-0.38-0.259-0.567
		c-0.01-0.021-0.021-0.041-0.031-0.062c-0.09-0.183-0.184-0.365-0.281-0.545c-0.02-0.035-0.039-0.068-0.059-0.103
		c-0.09-0.163-0.183-0.324-0.28-0.483c-0.036-0.059-0.074-0.117-0.111-0.175c-0.082-0.131-0.166-0.262-0.252-0.391
		c-0.059-0.087-0.121-0.173-0.183-0.259c-0.068-0.097-0.137-0.194-0.208-0.289c-0.083-0.112-0.169-0.22-0.255-0.329
		c-0.054-0.067-0.107-0.137-0.162-0.204c-0.103-0.124-0.208-0.245-0.314-0.365c-0.045-0.05-0.088-0.101-0.133-0.151
		c-0.113-0.125-0.229-0.246-0.346-0.366c-0.045-0.045-0.088-0.091-0.133-0.137c-0.115-0.115-0.232-0.226-0.351-0.336
		c-0.053-0.05-0.105-0.1-0.16-0.15c-0.108-0.099-0.22-0.194-0.332-0.289c-0.071-0.061-0.142-0.122-0.215-0.181
		c-0.096-0.079-0.194-0.155-0.292-0.232c-0.096-0.074-0.192-0.148-0.291-0.22c-0.079-0.059-0.16-0.115-0.24-0.172
		c-0.125-0.088-0.25-0.175-0.378-0.259c-0.06-0.04-0.12-0.079-0.181-0.117c-0.154-0.097-0.309-0.193-0.467-0.285
		c-0.043-0.025-0.085-0.051-0.129-0.075c-0.175-0.101-0.352-0.196-0.53-0.289c-0.032-0.017-0.065-0.035-0.099-0.051
		c-0.186-0.095-0.374-0.184-0.563-0.27c-0.029-0.013-0.057-0.027-0.086-0.04c-0.192-0.085-0.385-0.166-0.579-0.243
		c-0.027-0.011-0.055-0.022-0.083-0.033c-0.196-0.076-0.393-0.146-0.591-0.213c-0.026-0.009-0.054-0.019-0.08-0.028
		c-0.199-0.066-0.399-0.126-0.601-0.184c-0.025-0.007-0.052-0.016-0.077-0.022c-0.202-0.057-0.405-0.107-0.608-0.153
		c-0.025-0.006-0.05-0.013-0.076-0.019c-0.202-0.045-0.405-0.085-0.609-0.122c-0.026-0.005-0.054-0.01-0.082-0.016
		c-0.198-0.034-0.397-0.063-0.597-0.089c-0.033-0.004-0.066-0.01-0.1-0.014c-0.191-0.023-0.382-0.041-0.573-0.057
		c-0.043-0.003-0.086-0.008-0.129-0.011c-0.18-0.013-0.36-0.021-0.541-0.027c-0.055-0.002-0.11-0.005-0.167-0.006
		c-0.168-0.004-0.337-0.003-0.505-0.001c-0.069,0.001-0.137,0.001-0.206,0.003c-0.159,0.004-0.317,0.012-0.477,0.021
		c-0.077,0.005-0.155,0.009-0.232,0.016c-0.155,0.012-0.31,0.027-0.464,0.043c-0.079,0.009-0.158,0.018-0.237,0.028
		c-0.16,0.02-0.32,0.043-0.479,0.069c-0.065,0.01-0.131,0.021-0.196,0.032c-0.177,0.031-0.354,0.064-0.53,0.102
		c-0.039,0.008-0.077,0.017-0.115,0.025c-0.201,0.045-0.4,0.092-0.598,0.145c-0.008,0.002-0.016,0.004-0.024,0.007
		c-1.54,0.415-3.011,1.083-4.344,1.99c-0.024,0.016-0.048,0.033-0.072,0.05c-0.159,0.11-0.317,0.222-0.472,0.339
		c-0.058,0.043-0.114,0.089-0.171,0.133c-0.12,0.093-0.24,0.187-0.357,0.284c-0.081,0.067-0.159,0.136-0.238,0.205
		c-0.092,0.08-0.185,0.159-0.275,0.241c-0.091,0.083-0.179,0.168-0.268,0.253c-0.076,0.075-0.154,0.148-0.229,0.224
		c-0.09,0.09-0.177,0.182-0.264,0.274c-0.073,0.078-0.147,0.155-0.219,0.235c-0.08,0.088-0.158,0.179-0.234,0.269
		c-0.079,0.091-0.157,0.182-0.232,0.275c-0.066,0.08-0.129,0.162-0.193,0.243c-0.086,0.111-0.172,0.223-0.256,0.336
		c-0.049,0.067-0.097,0.135-0.145,0.203c-0.096,0.136-0.19,0.272-0.282,0.412c-0.034,0.051-0.067,0.103-0.1,0.155
		c-0.102,0.16-0.202,0.322-0.299,0.488C95.711,12.583,94.997,15.796,95.463,19.118z"/>
</g>
</svg>
